# WFC Creature - biped_warrior.obj
mtllib biped_warrior.mtl
usemtl creature_mat

v 0.0000 -0.5200 1.7000
v 0.0000 -0.5200 1.7000
v -0.0000 -0.5200 1.7000
v -0.0000 -0.5200 1.7000
v -0.0000 -0.5200 1.7000
v 0.0000 -0.5200 1.7000
v 0.2600 -0.4503 1.7000
v 0.1300 -0.4503 1.9252
v -0.1300 -0.4503 1.9252
v -0.2600 -0.4503 1.7000
v -0.1300 -0.4503 1.4748
v 0.1300 -0.4503 1.4748
v 0.4503 -0.2600 1.7000
v 0.2252 -0.2600 2.0900
v -0.2252 -0.2600 2.0900
v -0.4503 -0.2600 1.7000
v -0.2252 -0.2600 1.3100
v 0.2252 -0.2600 1.3100
v 0.5200 0.0000 1.7000
v 0.2600 0.0000 2.1503
v -0.2600 0.0000 2.1503
v -0.5200 0.0000 1.7000
v -0.2600 0.0000 1.2497
v 0.2600 0.0000 1.2497
v 0.4503 0.2600 1.7000
v 0.2252 0.2600 2.0900
v -0.2252 0.2600 2.0900
v -0.4503 0.2600 1.7000
v -0.2252 0.2600 1.3100
v 0.2252 0.2600 1.3100
v 0.2600 0.4503 1.7000
v 0.1300 0.4503 1.9252
v -0.1300 0.4503 1.9252
v -0.2600 0.4503 1.7000
v -0.1300 0.4503 1.4748
v 0.1300 0.4503 1.4748
v 0.0000 0.5200 1.7000
v 0.0000 0.5200 1.7000
v -0.0000 0.5200 1.7000
v -0.0000 0.5200 1.7000
v -0.0000 0.5200 1.7000
v 0.0000 0.5200 1.7000
v 1.1500 -1.2000 -0.6000
v 1.1500 0.0000 -0.6000
v 1.1061 -1.2000 -0.4939
v 1.1061 0.0000 -0.4939
v 1.0000 -1.2000 -0.4500
v 1.0000 0.0000 -0.4500
v 0.8939 -1.2000 -0.4939
v 0.8939 0.0000 -0.4939
v 0.8500 -1.2000 -0.6000
v 0.8500 0.0000 -0.6000
v 0.8939 -1.2000 -0.7061
v 0.8939 0.0000 -0.7061
v 1.0000 -1.2000 -0.7500
v 1.0000 0.0000 -0.7500
v 1.1061 -1.2000 -0.7061
v 1.1061 0.0000 -0.7061
v 1.0000 -1.2000 -0.6000
v 1.0000 0.0000 -0.6000
v -0.8500 -1.2000 -0.6000
v -0.8500 0.0000 -0.6000
v -0.8939 -1.2000 -0.4939
v -0.8939 0.0000 -0.4939
v -1.0000 -1.2000 -0.4500
v -1.0000 0.0000 -0.4500
v -1.1061 -1.2000 -0.4939
v -1.1061 0.0000 -0.4939
v -1.1500 -1.2000 -0.6000
v -1.1500 0.0000 -0.6000
v -1.1061 -1.2000 -0.7061
v -1.1061 0.0000 -0.7061
v -1.0000 -1.2000 -0.7500
v -1.0000 0.0000 -0.7500
v -0.8939 -1.2000 -0.7061
v -0.8939 0.0000 -0.7061
v -1.0000 -1.2000 -0.6000
v -1.0000 0.0000 -0.6000
v 1.3200 -1.1400 0.4000
v 1.3200 -0.0600 0.4000
v 1.2849 -1.1400 0.4849
v 1.2849 -0.0600 0.4849
v 1.2000 -1.1400 0.5200
v 1.2000 -0.0600 0.5200
v 1.1151 -1.1400 0.4849
v 1.1151 -0.0600 0.4849
v 1.0800 -1.1400 0.4000
v 1.0800 -0.0600 0.4000
v 1.1151 -1.1400 0.3151
v 1.1151 -0.0600 0.3151
v 1.2000 -1.1400 0.2800
v 1.2000 -0.0600 0.2800
v 1.2849 -1.1400 0.3151
v 1.2849 -0.0600 0.3151
v 1.2000 -1.1400 0.4000
v 1.2000 -0.0600 0.4000
v -1.0800 -1.1400 0.4000
v -1.0800 -0.0600 0.4000
v -1.1151 -1.1400 0.4849
v -1.1151 -0.0600 0.4849
v -1.2000 -1.1400 0.5200
v -1.2000 -0.0600 0.5200
v -1.2849 -1.1400 0.4849
v -1.2849 -0.0600 0.4849
v -1.3200 -1.1400 0.4000
v -1.3200 -0.0600 0.4000
v -1.2849 -1.1400 0.3151
v -1.2849 -0.0600 0.3151
v -1.2000 -1.1400 0.2800
v -1.2000 -0.0600 0.2800
v -1.1151 -1.1400 0.3151
v -1.1151 -0.0600 0.3151
v -1.2000 -1.1400 0.4000
v -1.2000 -0.0600 0.4000
f 1 3 4
f 1 4 2
f 3 5 6
f 3 6 4
f 5 7 8
f 5 8 6
f 7 9 10
f 7 10 8
f 9 11 12
f 9 12 10
f 11 13 14
f 11 14 12
f 13 15 16
f 13 16 14
f 15 1 2
f 15 2 16
f 1 3 4
f 1 4 2
f 3 5 6
f 3 6 4
f 5 7 8
f 5 8 6
f 7 9 10
f 7 10 8
f 9 11 12
f 9 12 10
f 11 13 14
f 11 14 12
f 13 15 16
f 13 16 14
f 15 1 2
f 15 2 16
f 1 3 4
f 1 4 2
f 3 5 6
f 3 6 4
f 5 7 8
f 5 8 6
f 7 9 10
f 7 10 8
f 9 11 12
f 9 12 10
f 11 13 14
f 11 14 12
f 13 15 16
f 13 16 14
f 15 1 2
f 15 2 16
f 1 7 8
f 1 8 2
f 2 8 9
f 2 9 3
f 3 9 10
f 3 10 4
f 4 10 11
f 4 11 5
f 5 11 12
f 5 12 6
f 6 12 7
f 6 7 1
f 7 13 14
f 7 14 8
f 8 14 15
f 8 15 9
f 9 15 16
f 9 16 10
f 10 16 17
f 10 17 11
f 11 17 18
f 11 18 12
f 12 18 13
f 12 13 7
f 13 19 20
f 13 20 14
f 14 20 21
f 14 21 15
f 15 21 22
f 15 22 16
f 16 22 23
f 16 23 17
f 17 23 24
f 17 24 18
f 18 24 19
f 18 19 13
f 19 25 26
f 19 26 20
f 20 26 27
f 20 27 21
f 21 27 28
f 21 28 22
f 22 28 29
f 22 29 23
f 23 29 30
f 23 30 24
f 24 30 25
f 24 25 19
f 25 31 32
f 25 32 26
f 26 32 33
f 26 33 27
f 27 33 34
f 27 34 28
f 28 34 35
f 28 35 29
f 29 35 36
f 29 36 30
f 30 36 31
f 30 31 25
f 43 45 46
f 43 46 44
f 45 47 48
f 45 48 46
f 47 49 50
f 47 50 48
f 49 51 52
f 49 52 50
f 51 53 54
f 51 54 52
f 53 55 56
f 53 56 54
f 55 57 58
f 55 58 56
f 57 43 44
f 57 44 58
f 59 43 45
f 59 45 47
f 59 47 49
f 59 49 51
f 59 51 53
f 59 53 55
f 59 55 57
f 59 57 43
f 60 46 44
f 60 48 46
f 60 50 48
f 60 52 50
f 60 54 52
f 60 56 54
f 60 58 56
f 60 44 58
f 61 63 64
f 61 64 62
f 63 65 66
f 63 66 64
f 65 67 68
f 65 68 66
f 67 69 70
f 67 70 68
f 69 71 72
f 69 72 70
f 71 73 74
f 71 74 72
f 73 75 76
f 73 76 74
f 75 61 62
f 75 62 76
f 77 61 63
f 77 63 65
f 77 65 67
f 77 67 69
f 77 69 71
f 77 71 73
f 77 73 75
f 77 75 61
f 78 64 62
f 78 66 64
f 78 68 66
f 78 70 68
f 78 72 70
f 78 74 72
f 78 76 74
f 78 62 76
f 79 81 82
f 79 82 80
f 81 83 84
f 81 84 82
f 83 85 86
f 83 86 84
f 85 87 88
f 85 88 86
f 87 89 90
f 87 90 88
f 89 91 92
f 89 92 90
f 91 93 94
f 91 94 92
f 93 79 80
f 93 80 94
f 95 79 81
f 95 81 83
f 95 83 85
f 95 85 87
f 95 87 89
f 95 89 91
f 95 91 93
f 95 93 79
f 96 82 80
f 96 84 82
f 96 86 84
f 96 88 86
f 96 90 88
f 96 92 90
f 96 94 92
f 96 80 94
f 97 99 100
f 97 100 98
f 99 101 102
f 99 102 100
f 101 103 104
f 101 104 102
f 103 105 106
f 103 106 104
f 105 107 108
f 105 108 106
f 107 109 110
f 107 110 108
f 109 111 112
f 109 112 110
f 111 97 98
f 111 98 112
f 113 97 99
f 113 99 101
f 113 101 103
f 113 103 105
f 113 105 107
f 113 107 109
f 113 109 111
f 113 111 97
f 114 100 98
f 114 102 100
f 114 104 102
f 114 106 104
f 114 108 106
f 114 110 108
f 114 112 110
f 114 98 112
