mtllib chimera_alpha.mtl
g chimera_alpha
usemtl M_chimera_alpha
v -0.4206 2.6805 0.0000
v 0.4206 2.6805 0.0000
v -0.4206 1.3195 0.0000
v 0.4206 1.3195 0.0000
v 0.0000 1.5794 0.6805
v 0.0000 2.4206 0.6805
v 0.0000 1.5794 -0.6805
v 0.0000 2.4206 -0.6805
v 0.6805 2.0000 -0.4206
v 0.6805 2.0000 0.4206
v -0.6805 2.0000 -0.4206
v -0.6805 2.0000 0.4206
v -0.6472 2.4000 0.2472
v -0.4000 2.2472 0.6472
v -0.2472 2.6472 0.4000
v 0.2472 2.6472 0.4000
v 0.0000 2.8000 0.0000
v 0.2472 2.6472 -0.4000
v -0.2472 2.6472 -0.4000
v -0.4000 2.2472 -0.6472
v -0.6472 2.4000 -0.2472
v -0.8000 2.0000 0.0000
v 0.4000 2.2472 0.6472
v 0.6472 2.4000 0.2472
v -0.4000 1.7528 0.6472
v 0.0000 2.0000 0.8000
v -0.6472 1.6000 -0.2472
v -0.6472 1.6000 0.2472
v 0.0000 2.0000 -0.8000
v -0.4000 1.7528 -0.6472
v 0.6472 2.4000 -0.2472
v 0.4000 2.2472 -0.6472
v 0.6472 1.6000 0.2472
v 0.4000 1.7528 0.6472
v 0.2472 1.3528 0.4000
v -0.2472 1.3528 0.4000
v 0.0000 1.2000 0.0000
v -0.2472 1.3528 -0.4000
v 0.2472 1.3528 -0.4000
v 0.4000 1.7528 -0.6472
v 0.6472 1.6000 -0.2472
v 0.8000 2.0000 0.0000
v -0.6309 1.5208 0.0000
v 0.6309 1.5208 0.0000
v -0.6309 -0.5208 0.0000
v 0.6309 -0.5208 0.0000
v 0.0000 -0.1309 1.0208
v 0.0000 1.1309 1.0208
v 0.0000 -0.1309 -1.0208
v 0.0000 1.1309 -1.0208
v 1.0208 0.5000 -0.6309
v 1.0208 0.5000 0.6309
v -1.0208 0.5000 -0.6309
v -1.0208 0.5000 0.6309
v -0.9708 1.1000 0.3708
v -0.6000 0.8708 0.9708
v -0.3708 1.4708 0.6000
v 0.3708 1.4708 0.6000
v 0.0000 1.7000 0.0000
v 0.3708 1.4708 -0.6000
v -0.3708 1.4708 -0.6000
v -0.6000 0.8708 -0.9708
v -0.9708 1.1000 -0.3708
v -1.2000 0.5000 0.0000
v 0.6000 0.8708 0.9708
v 0.9708 1.1000 0.3708
v -0.6000 0.1292 0.9708
v 0.0000 0.5000 1.2000
v -0.9708 -0.1000 -0.3708
v -0.9708 -0.1000 0.3708
v 0.0000 0.5000 -1.2000
v -0.6000 0.1292 -0.9708
v 0.9708 1.1000 -0.3708
v 0.6000 0.8708 -0.9708
v 0.9708 -0.1000 0.3708
v 0.6000 0.1292 0.9708
v 0.3708 -0.4708 0.6000
v -0.3708 -0.4708 0.6000
v 0.0000 -0.7000 0.0000
v -0.3708 -0.4708 -0.6000
v 0.3708 -0.4708 -0.6000
v 0.6000 0.1292 -0.9708
v 0.9708 -0.1000 -0.3708
v 1.2000 0.5000 0.0000
v -1.8154 1.5104 -0.5000
v -1.1846 1.5104 -0.5000
v -1.8154 0.4896 -0.5000
v -1.1846 0.4896 -0.5000
v -1.5000 0.6846 0.0104
v -1.5000 1.3154 0.0104
v -1.5000 0.6846 -1.0104
v -1.5000 1.3154 -1.0104
v -0.9896 1.0000 -0.8154
v -0.9896 1.0000 -0.1846
v -2.0104 1.0000 -0.8154
v -2.0104 1.0000 -0.1846
v 1.1846 1.5104 -0.5000
v 1.8154 1.5104 -0.5000
v 1.1846 0.4896 -0.5000
v 1.8154 0.4896 -0.5000
v 1.5000 0.6846 0.0104
v 1.5000 1.3154 0.0104
v 1.5000 0.6846 -1.0104
v 1.5000 1.3154 -1.0104
v 2.0104 1.0000 -0.8154
v 2.0104 1.0000 -0.1846
v 0.9896 1.0000 -0.8154
v 0.9896 1.0000 -0.1846
v -0.2103 0.3403 -1.5000
v 0.2103 0.3403 -1.5000
v -0.2103 -0.3403 -1.5000
v 0.2103 -0.3403 -1.5000
v 0.0000 -0.2103 -1.1597
v 0.0000 0.2103 -1.1597
v 0.0000 -0.2103 -1.8403
v 0.0000 0.2103 -1.8403
v 0.3403 0.0000 -1.7103
v 0.3403 0.0000 -1.2897
v -0.3403 0.0000 -1.7103
v -0.3403 0.0000 -1.2897
v -0.1840 0.2977 -2.1000
v 0.1840 0.2977 -2.1000
v -0.1840 -0.2977 -2.1000
v 0.1840 -0.2977 -2.1000
v 0.0000 -0.1840 -1.8023
v 0.0000 0.1840 -1.8023
v 0.0000 -0.1840 -2.3977
v 0.0000 0.1840 -2.3977
v 0.2977 0.0000 -2.2840
v 0.2977 0.0000 -1.9160
v -0.2977 0.0000 -2.2840
v -0.2977 0.0000 -1.9160
v -0.1577 0.2552 -2.7000
v 0.1577 0.2552 -2.7000
v -0.1577 -0.2552 -2.7000
v 0.1577 -0.2552 -2.7000
v 0.0000 -0.1577 -2.4448
v 0.0000 0.1577 -2.4448
v 0.0000 -0.1577 -2.9552
v 0.0000 0.1577 -2.9552
v 0.2552 0.0000 -2.8577
v 0.2552 0.0000 -2.5423
v -0.2552 0.0000 -2.8577
v -0.2552 0.0000 -2.5423
v -0.1314 0.2127 -3.3000
v 0.1314 0.2127 -3.3000
v -0.1314 -0.2127 -3.3000
v 0.1314 -0.2127 -3.3000
v 0.0000 -0.1314 -3.0873
v 0.0000 0.1314 -3.0873
v 0.0000 -0.1314 -3.5127
v 0.0000 0.1314 -3.5127
v 0.2127 0.0000 -3.4314
v 0.2127 0.0000 -3.1686
v -0.2127 0.0000 -3.4314
v -0.2127 0.0000 -3.1686
v -0.1051 0.1701 -3.9000
v 0.1051 0.1701 -3.9000
v -0.1051 -0.1701 -3.9000
v 0.1051 -0.1701 -3.9000
v 0.0000 -0.1051 -3.7299
v 0.0000 0.1051 -3.7299
v 0.0000 -0.1051 -4.0701
v 0.0000 0.1051 -4.0701
v 0.1701 0.0000 -4.0051
v 0.1701 0.0000 -3.7949
v -0.1701 0.0000 -4.0051
v -0.1701 0.0000 -3.7949
f 0 12 14
f 11 13 12
f 5 14 13
f 12 13 14
f 0 14 16
f 5 15 14
f 1 16 15
f 14 15 16
f 0 16 18
f 1 17 16
f 7 18 17
f 16 17 18
f 0 18 20
f 7 19 18
f 10 20 19
f 18 19 20
f 0 20 12
f 10 21 20
f 11 12 21
f 20 21 12
f 1 15 23
f 5 22 15
f 9 23 22
f 15 22 23
f 5 13 25
f 11 24 13
f 4 25 24
f 13 24 25
f 11 21 27
f 10 26 21
f 2 27 26
f 21 26 27
f 10 19 29
f 7 28 19
f 6 29 28
f 19 28 29
f 7 17 31
f 1 30 17
f 8 31 30
f 17 30 31
f 3 32 34
f 9 33 32
f 4 34 33
f 32 33 34
f 3 34 36
f 4 35 34
f 2 36 35
f 34 35 36
f 3 36 38
f 2 37 36
f 6 38 37
f 36 37 38
f 3 38 40
f 6 39 38
f 8 40 39
f 38 39 40
f 3 40 32
f 8 41 40
f 9 32 41
f 40 41 32
f 4 33 25
f 9 22 33
f 5 25 22
f 33 22 25
f 2 35 27
f 4 24 35
f 11 27 24
f 35 24 27
f 6 37 29
f 2 26 37
f 10 29 26
f 37 26 29
f 8 39 31
f 6 28 39
f 7 31 28
f 39 28 31
f 9 41 23
f 8 30 41
f 1 23 30
f 41 30 23
f 42 54 56
f 53 55 54
f 47 56 55
f 54 55 56
f 42 56 58
f 47 57 56
f 43 58 57
f 56 57 58
f 42 58 60
f 43 59 58
f 49 60 59
f 58 59 60
f 42 60 62
f 49 61 60
f 52 62 61
f 60 61 62
f 42 62 54
f 52 63 62
f 53 54 63
f 62 63 54
f 43 57 65
f 47 64 57
f 51 65 64
f 57 64 65
f 47 55 67
f 53 66 55
f 46 67 66
f 55 66 67
f 53 63 69
f 52 68 63
f 44 69 68
f 63 68 69
f 52 61 71
f 49 70 61
f 48 71 70
f 61 70 71
f 49 59 73
f 43 72 59
f 50 73 72
f 59 72 73
f 45 74 76
f 51 75 74
f 46 76 75
f 74 75 76
f 45 76 78
f 46 77 76
f 44 78 77
f 76 77 78
f 45 78 80
f 44 79 78
f 48 80 79
f 78 79 80
f 45 80 82
f 48 81 80
f 50 82 81
f 80 81 82
f 45 82 74
f 50 83 82
f 51 74 83
f 82 83 74
f 46 75 67
f 51 64 75
f 47 67 64
f 75 64 67
f 44 77 69
f 46 66 77
f 53 69 66
f 77 66 69
f 48 79 71
f 44 68 79
f 52 71 68
f 79 68 71
f 50 81 73
f 48 70 81
f 49 73 70
f 81 70 73
f 51 83 65
f 50 72 83
f 43 65 72
f 83 72 65
f 84 95 89
f 84 89 85
f 84 85 91
f 84 91 94
f 84 94 95
f 85 89 93
f 89 95 88
f 95 94 86
f 94 91 90
f 91 85 92
f 87 93 88
f 87 88 86
f 87 86 90
f 87 90 92
f 87 92 93
f 88 93 89
f 86 88 95
f 90 86 94
f 92 90 91
f 93 92 85
f 96 107 101
f 96 101 97
f 96 97 103
f 96 103 106
f 96 106 107
f 97 101 105
f 101 107 100
f 107 106 98
f 106 103 102
f 103 97 104
f 99 105 100
f 99 100 98
f 99 98 102
f 99 102 104
f 99 104 105
f 100 105 101
f 98 100 107
f 102 98 106
f 104 102 103
f 105 104 97
f 108 119 113
f 108 113 109
f 108 109 115
f 108 115 118
f 108 118 119
f 109 113 117
f 113 119 112
f 119 118 110
f 118 115 114
f 115 109 116
f 111 117 112
f 111 112 110
f 111 110 114
f 111 114 116
f 111 116 117
f 112 117 113
f 110 112 119
f 114 110 118
f 116 114 115
f 117 116 109
f 120 131 125
f 120 125 121
f 120 121 127
f 120 127 130
f 120 130 131
f 121 125 129
f 125 131 124
f 131 130 122
f 130 127 126
f 127 121 128
f 123 129 124
f 123 124 122
f 123 122 126
f 123 126 128
f 123 128 129
f 124 129 125
f 122 124 131
f 126 122 130
f 128 126 127
f 129 128 121
f 132 143 137
f 132 137 133
f 132 133 139
f 132 139 142
f 132 142 143
f 133 137 141
f 137 143 136
f 143 142 134
f 142 139 138
f 139 133 140
f 135 141 136
f 135 136 134
f 135 134 138
f 135 138 140
f 135 140 141
f 136 141 137
f 134 136 143
f 138 134 142
f 140 138 139
f 141 140 133
f 144 155 149
f 144 149 145
f 144 145 151
f 144 151 154
f 144 154 155
f 145 149 153
f 149 155 148
f 155 154 146
f 154 151 150
f 151 145 152
f 147 153 148
f 147 148 146
f 147 146 150
f 147 150 152
f 147 152 153
f 148 153 149
f 146 148 155
f 150 146 154
f 152 150 151
f 153 152 145
f 156 167 161
f 156 161 157
f 156 157 163
f 156 163 166
f 156 166 167
f 157 161 165
f 161 167 160
f 167 166 158
f 166 163 162
f 163 157 164
f 159 165 160
f 159 160 158
f 159 158 162
f 159 162 164
f 159 164 165
f 160 165 161
f 158 160 167
f 162 158 166
f 164 162 163
f 165 164 157
