# WFC Creature - deep_kraken.obj
mtllib deep_kraken.mtl
usemtl creature_mat

v 0.0000 -0.5200 0.9000
v 0.0000 -0.5200 0.9000
v -0.0000 -0.5200 0.9000
v -0.0000 -0.5200 0.9000
v -0.0000 -0.5200 0.9000
v 0.0000 -0.5200 0.9000
v 0.2600 -0.4503 0.9000
v 0.1300 -0.4503 1.1252
v -0.1300 -0.4503 1.1252
v -0.2600 -0.4503 0.9000
v -0.1300 -0.4503 0.6748
v 0.1300 -0.4503 0.6748
v 0.4503 -0.2600 0.9000
v 0.2252 -0.2600 1.2900
v -0.2252 -0.2600 1.2900
v -0.4503 -0.2600 0.9000
v -0.2252 -0.2600 0.5100
v 0.2252 -0.2600 0.5100
v 0.5200 0.0000 0.9000
v 0.2600 0.0000 1.3503
v -0.2600 0.0000 1.3503
v -0.5200 0.0000 0.9000
v -0.2600 0.0000 0.4497
v 0.2600 0.0000 0.4497
v 0.4503 0.2600 0.9000
v 0.2252 0.2600 1.2900
v -0.2252 0.2600 1.2900
v -0.4503 0.2600 0.9000
v -0.2252 0.2600 0.5100
v 0.2252 0.2600 0.5100
v 0.2600 0.4503 0.9000
v 0.1300 0.4503 1.1252
v -0.1300 0.4503 1.1252
v -0.2600 0.4503 0.9000
v -0.1300 0.4503 0.6748
v 0.1300 0.4503 0.6748
v 0.0000 0.5200 0.9000
v 0.0000 0.5200 0.9000
v -0.0000 0.5200 0.9000
v -0.0000 0.5200 0.9000
v -0.0000 0.5200 0.9000
v 0.0000 0.5200 0.9000
v 1.1200 -1.7500 0.0000
v 1.0200 -0.2500 0.0000
v 1.0849 -1.7500 0.0849
v 1.0141 -0.2500 0.0141
v 1.0000 -1.7500 0.1200
v 1.0000 -0.2500 0.0200
v 0.9151 -1.7500 0.0849
v 0.9859 -0.2500 0.0141
v 0.8800 -1.7500 0.0000
v 0.9800 -0.2500 0.0000
v 0.9151 -1.7500 -0.0849
v 0.9859 -0.2500 -0.0141
v 1.0000 -1.7500 -0.1200
v 1.0000 -0.2500 -0.0200
v 1.0849 -1.7500 -0.0849
v 1.0141 -0.2500 -0.0141
v 0.8272 -1.7500 0.7072
v 0.7272 -0.2500 0.7072
v 0.7920 -1.7500 0.7920
v 0.7213 -0.2500 0.7213
v 0.7072 -1.7500 0.8272
v 0.7072 -0.2500 0.7272
v 0.6223 -1.7500 0.7920
v 0.6930 -0.2500 0.7213
v 0.5872 -1.7500 0.7072
v 0.6872 -0.2500 0.7072
v 0.6223 -1.7500 0.6223
v 0.6930 -0.2500 0.6930
v 0.7072 -1.7500 0.5872
v 0.7072 -0.2500 0.6872
v 0.7920 -1.7500 0.6223
v 0.7213 -0.2500 0.6930
v 0.1200 -1.7500 1.0000
v 0.0200 -0.2500 1.0000
v 0.0849 -1.7500 1.0849
v 0.0141 -0.2500 1.0141
v 0.0000 -1.7500 1.1200
v 0.0000 -0.2500 1.0200
v -0.0849 -1.7500 1.0849
v -0.0141 -0.2500 1.0141
v -0.1200 -1.7500 1.0000
v -0.0200 -0.2500 1.0000
v -0.0849 -1.7500 0.9151
v -0.0141 -0.2500 0.9859
v 0.0000 -1.7500 0.8800
v 0.0000 -0.2500 0.9800
v 0.0849 -1.7500 0.9151
v 0.0141 -0.2500 0.9859
v -0.5872 -1.7500 0.7072
v -0.6872 -0.2500 0.7072
v -0.6223 -1.7500 0.7920
v -0.6930 -0.2500 0.7213
v -0.7072 -1.7500 0.8272
v -0.7072 -0.2500 0.7272
v -0.7920 -1.7500 0.7920
v -0.7213 -0.2500 0.7213
v -0.8272 -1.7500 0.7072
v -0.7272 -0.2500 0.7072
v -0.7920 -1.7500 0.6223
v -0.7213 -0.2500 0.6930
v -0.7072 -1.7500 0.5872
v -0.7072 -0.2500 0.6872
v -0.6223 -1.7500 0.6223
v -0.6930 -0.2500 0.6930
v -0.8800 -1.7500 0.0000
v -0.9800 -0.2500 0.0000
v -0.9151 -1.7500 0.0849
v -0.9859 -0.2500 0.0141
v -1.0000 -1.7500 0.1200
v -1.0000 -0.2500 0.0200
v -1.0849 -1.7500 0.0849
v -1.0141 -0.2500 0.0141
v -1.1200 -1.7500 0.0000
v -1.0200 -0.2500 0.0000
v -1.0849 -1.7500 -0.0849
v -1.0141 -0.2500 -0.0141
v -1.0000 -1.7500 -0.1200
v -1.0000 -0.2500 -0.0200
v -0.9151 -1.7500 -0.0849
v -0.9859 -0.2500 -0.0141
v -0.5872 -1.7500 -0.7072
v -0.6872 -0.2500 -0.7072
v -0.6223 -1.7500 -0.6223
v -0.6930 -0.2500 -0.6930
v -0.7072 -1.7500 -0.5872
v -0.7072 -0.2500 -0.6872
v -0.7920 -1.7500 -0.6223
v -0.7213 -0.2500 -0.6930
v -0.8272 -1.7500 -0.7072
v -0.7272 -0.2500 -0.7072
v -0.7920 -1.7500 -0.7920
v -0.7213 -0.2500 -0.7213
v -0.7072 -1.7500 -0.8272
v -0.7072 -0.2500 -0.7272
v -0.6223 -1.7500 -0.7920
v -0.6930 -0.2500 -0.7213
v 0.1200 -1.7500 -1.0000
v 0.0200 -0.2500 -1.0000
v 0.0849 -1.7500 -0.9151
v 0.0141 -0.2500 -0.9859
v -0.0000 -1.7500 -0.8800
v -0.0000 -0.2500 -0.9800
v -0.0849 -1.7500 -0.9151
v -0.0141 -0.2500 -0.9859
v -0.1200 -1.7500 -1.0000
v -0.0200 -0.2500 -1.0000
v -0.0849 -1.7500 -1.0849
v -0.0141 -0.2500 -1.0141
v -0.0000 -1.7500 -1.1200
v -0.0000 -0.2500 -1.0200
v 0.0849 -1.7500 -1.0849
v 0.0141 -0.2500 -1.0141
v 0.8272 -1.7500 -0.7072
v 0.7272 -0.2500 -0.7072
v 0.7920 -1.7500 -0.6223
v 0.7213 -0.2500 -0.6930
v 0.7072 -1.7500 -0.5872
v 0.7072 -0.2500 -0.6872
v 0.6223 -1.7500 -0.6223
v 0.6930 -0.2500 -0.6930
v 0.5872 -1.7500 -0.7072
v 0.6872 -0.2500 -0.7072
v 0.6223 -1.7500 -0.7920
v 0.6930 -0.2500 -0.7213
v 0.7072 -1.7500 -0.8272
v 0.7072 -0.2500 -0.7272
v 0.7920 -1.7500 -0.7920
v 0.7213 -0.2500 -0.7213
f 1 3 4
f 1 4 2
f 3 5 6
f 3 6 4
f 5 7 8
f 5 8 6
f 7 9 10
f 7 10 8
f 9 11 12
f 9 12 10
f 11 13 14
f 11 14 12
f 13 15 16
f 13 16 14
f 15 1 2
f 15 2 16
f 1 7 8
f 1 8 2
f 2 8 9
f 2 9 3
f 3 9 10
f 3 10 4
f 4 10 11
f 4 11 5
f 5 11 12
f 5 12 6
f 6 12 7
f 6 7 1
f 7 13 14
f 7 14 8
f 8 14 15
f 8 15 9
f 9 15 16
f 9 16 10
f 10 16 17
f 10 17 11
f 11 17 18
f 11 18 12
f 12 18 13
f 12 13 7
f 13 19 20
f 13 20 14
f 14 20 21
f 14 21 15
f 15 21 22
f 15 22 16
f 16 22 23
f 16 23 17
f 17 23 24
f 17 24 18
f 18 24 19
f 18 19 13
f 19 25 26
f 19 26 20
f 20 26 27
f 20 27 21
f 21 27 28
f 21 28 22
f 22 28 29
f 22 29 23
f 23 29 30
f 23 30 24
f 24 30 25
f 24 25 19
f 25 31 32
f 25 32 26
f 26 32 33
f 26 33 27
f 27 33 34
f 27 34 28
f 28 34 35
f 28 35 29
f 29 35 36
f 29 36 30
f 30 36 31
f 30 31 25
f 43 45 46
f 43 46 44
f 45 47 48
f 45 48 46
f 47 49 50
f 47 50 48
f 49 51 52
f 49 52 50
f 51 53 54
f 51 54 52
f 53 55 56
f 53 56 54
f 55 57 58
f 55 58 56
f 57 43 44
f 57 44 58
f 59 61 62
f 59 62 60
f 61 63 64
f 61 64 62
f 63 65 66
f 63 66 64
f 65 67 68
f 65 68 66
f 67 69 70
f 67 70 68
f 69 71 72
f 69 72 70
f 71 73 74
f 71 74 72
f 73 59 60
f 73 60 74
f 75 77 78
f 75 78 76
f 77 79 80
f 77 80 78
f 79 81 82
f 79 82 80
f 81 83 84
f 81 84 82
f 83 85 86
f 83 86 84
f 85 87 88
f 85 88 86
f 87 89 90
f 87 90 88
f 89 75 76
f 89 76 90
f 91 93 94
f 91 94 92
f 93 95 96
f 93 96 94
f 95 97 98
f 95 98 96
f 97 99 100
f 97 100 98
f 99 101 102
f 99 102 100
f 101 103 104
f 101 104 102
f 103 105 106
f 103 106 104
f 105 91 92
f 105 92 106
f 107 109 110
f 107 110 108
f 109 111 112
f 109 112 110
f 111 113 114
f 111 114 112
f 113 115 116
f 113 116 114
f 115 117 118
f 115 118 116
f 117 119 120
f 117 120 118
f 119 121 122
f 119 122 120
f 121 107 108
f 121 108 122
f 123 125 126
f 123 126 124
f 125 127 128
f 125 128 126
f 127 129 130
f 127 130 128
f 129 131 132
f 129 132 130
f 131 133 134
f 131 134 132
f 133 135 136
f 133 136 134
f 135 137 138
f 135 138 136
f 137 123 124
f 137 124 138
f 139 141 142
f 139 142 140
f 141 143 144
f 141 144 142
f 143 145 146
f 143 146 144
f 145 147 148
f 145 148 146
f 147 149 150
f 147 150 148
f 149 151 152
f 149 152 150
f 151 153 154
f 151 154 152
f 153 139 140
f 153 140 154
f 155 157 158
f 155 158 156
f 157 159 160
f 157 160 158
f 159 161 162
f 159 162 160
f 161 163 164
f 161 164 162
f 163 165 166
f 163 166 164
f 165 167 168
f 165 168 166
f 167 169 170
f 167 170 168
f 169 155 156
f 169 156 170
