mtllib geo_drake.mtl
g geo_drake
usemtl M_geo_drake
v -0.5257 0.8507 0.0000
v 0.5257 0.8507 0.0000
v -0.5257 -0.8507 0.0000
v 0.5257 -0.8507 0.0000
v 0.0000 -0.5257 0.8507
v 0.0000 0.5257 0.8507
v 0.0000 -0.5257 -0.8507
v 0.0000 0.5257 -0.8507
v 0.8507 0.0000 -0.5257
v 0.8507 0.0000 0.5257
v -0.8507 0.0000 -0.5257
v -0.8507 0.0000 0.5257
v -0.8090 0.5000 0.3090
v -0.5000 0.3090 0.8090
v -0.3090 0.8090 0.5000
v 0.3090 0.8090 0.5000
v 0.0000 1.0000 0.0000
v 0.3090 0.8090 -0.5000
v -0.3090 0.8090 -0.5000
v -0.5000 0.3090 -0.8090
v -0.8090 0.5000 -0.3090
v -1.0000 0.0000 0.0000
v 0.5000 0.3090 0.8090
v 0.8090 0.5000 0.3090
v -0.5000 -0.3090 0.8090
v 0.0000 0.0000 1.0000
v -0.8090 -0.5000 -0.3090
v -0.8090 -0.5000 0.3090
v 0.0000 0.0000 -1.0000
v -0.5000 -0.3090 -0.8090
v 0.8090 0.5000 -0.3090
v 0.5000 0.3090 -0.8090
v 0.8090 -0.5000 0.3090
v 0.5000 -0.3090 0.8090
v 0.3090 -0.8090 0.5000
v -0.3090 -0.8090 0.5000
v 0.0000 -1.0000 0.0000
v -0.3090 -0.8090 -0.5000
v 0.3090 -0.8090 -0.5000
v 0.5000 -0.3090 -0.8090
v 0.8090 -0.5000 -0.3090
v 1.0000 0.0000 0.0000
v -0.1577 1.4552 -0.8000
v 0.1577 1.4552 -0.8000
v -0.1577 0.9448 -0.8000
v 0.1577 0.9448 -0.8000
v 0.0000 1.0423 -0.5448
v 0.0000 1.3577 -0.5448
v 0.0000 1.0423 -1.0552
v 0.0000 1.3577 -1.0552
v 0.2552 1.2000 -0.9577
v 0.2552 1.2000 -0.6423
v -0.2552 1.2000 -0.9577
v -0.2552 1.2000 -0.6423
v -0.1577 1.4552 -1.2000
v 0.1577 1.4552 -1.2000
v -0.1577 0.9448 -1.2000
v 0.1577 0.9448 -1.2000
v 0.0000 1.0423 -0.9448
v 0.0000 1.3577 -0.9448
v 0.0000 1.0423 -1.4552
v 0.0000 1.3577 -1.4552
v 0.2552 1.2000 -1.3577
v 0.2552 1.2000 -1.0423
v -0.2552 1.2000 -1.3577
v -0.2552 1.2000 -1.0423
v -0.1577 1.4552 -1.6000
v 0.1577 1.4552 -1.6000
v -0.1577 0.9448 -1.6000
v 0.1577 0.9448 -1.6000
v 0.0000 1.0423 -1.3448
v 0.0000 1.3577 -1.3448
v 0.0000 1.0423 -1.8552
v 0.0000 1.3577 -1.8552
v 0.2552 1.2000 -1.7577
v 0.2552 1.2000 -1.4423
v -0.2552 1.2000 -1.7577
v -0.2552 1.2000 -1.4423
v -0.1577 1.4552 -2.0000
v 0.1577 1.4552 -2.0000
v -0.1577 0.9448 -2.0000
v 0.1577 0.9448 -2.0000
v 0.0000 1.0423 -1.7448
v 0.0000 1.3577 -1.7448
v 0.0000 1.0423 -2.2552
v 0.0000 1.3577 -2.2552
v 0.2552 1.2000 -2.1577
v 0.2552 1.2000 -1.8423
v -0.2552 1.2000 -2.1577
v -0.2552 1.2000 -1.8423
v -0.1577 1.4552 -2.4000
v 0.1577 1.4552 -2.4000
v -0.1577 0.9448 -2.4000
v 0.1577 0.9448 -2.4000
v 0.0000 1.0423 -2.1448
v 0.0000 1.3577 -2.1448
v 0.0000 1.0423 -2.6552
v 0.0000 1.3577 -2.6552
v 0.2552 1.2000 -2.5577
v 0.2552 1.2000 -2.2423
v -0.2552 1.2000 -2.5577
v -0.2552 1.2000 -2.2423
v -0.3680 1.0955 1.2000
v 0.3680 1.0955 1.2000
v -0.3680 -0.0955 1.2000
v 0.3680 -0.0955 1.2000
v 0.0000 0.1320 1.7955
v 0.0000 0.8680 1.7955
v 0.0000 0.1320 0.6045
v 0.0000 0.8680 0.6045
v 0.5955 0.5000 0.8320
v 0.5955 0.5000 1.5680
v -0.5955 0.5000 0.8320
v -0.5955 0.5000 1.5680
v -0.5663 0.8500 1.4163
v -0.3500 0.7163 1.7663
v -0.2163 1.0663 1.5500
v 0.2163 1.0663 1.5500
v 0.0000 1.2000 1.2000
v 0.2163 1.0663 0.8500
v -0.2163 1.0663 0.8500
v -0.3500 0.7163 0.6337
v -0.5663 0.8500 0.9837
v -0.7000 0.5000 1.2000
v 0.3500 0.7163 1.7663
v 0.5663 0.8500 1.4163
v -0.3500 0.2837 1.7663
v 0.0000 0.5000 1.9000
v -0.5663 0.1500 0.9837
v -0.5663 0.1500 1.4163
v 0.0000 0.5000 0.5000
v -0.3500 0.2837 0.6337
v 0.5663 0.8500 0.9837
v 0.3500 0.7163 0.6337
v 0.5663 0.1500 1.4163
v 0.3500 0.2837 1.7663
v 0.2163 -0.0663 1.5500
v -0.2163 -0.0663 1.5500
v 0.0000 -0.2000 1.2000
v -0.2163 -0.0663 0.8500
v 0.2163 -0.0663 0.8500
v 0.3500 0.2837 0.6337
v 0.5663 0.1500 0.9837
v 0.7000 0.5000 1.2000
v -1.4629 0.9253 -0.2000
v -0.9371 0.9253 -0.2000
v -1.4629 0.0747 -0.2000
v -0.9371 0.0747 -0.2000
v -1.2000 0.2371 0.2253
v -1.2000 0.7629 0.2253
v -1.2000 0.2371 -0.6253
v -1.2000 0.7629 -0.6253
v -0.7747 0.5000 -0.4629
v -0.7747 0.5000 0.0629
v -1.6253 0.5000 -0.4629
v -1.6253 0.5000 0.0629
v 0.9371 0.9253 -0.2000
v 1.4629 0.9253 -0.2000
v 0.9371 0.0747 -0.2000
v 1.4629 0.0747 -0.2000
v 1.2000 0.2371 0.2253
v 1.2000 0.7629 0.2253
v 1.2000 0.2371 -0.6253
v 1.2000 0.7629 -0.6253
v 1.6253 0.5000 -0.4629
v 1.6253 0.5000 0.0629
v 0.7747 0.5000 -0.4629
v 0.7747 0.5000 0.0629
f 0 12 14
f 11 13 12
f 5 14 13
f 12 13 14
f 0 14 16
f 5 15 14
f 1 16 15
f 14 15 16
f 0 16 18
f 1 17 16
f 7 18 17
f 16 17 18
f 0 18 20
f 7 19 18
f 10 20 19
f 18 19 20
f 0 20 12
f 10 21 20
f 11 12 21
f 20 21 12
f 1 15 23
f 5 22 15
f 9 23 22
f 15 22 23
f 5 13 25
f 11 24 13
f 4 25 24
f 13 24 25
f 11 21 27
f 10 26 21
f 2 27 26
f 21 26 27
f 10 19 29
f 7 28 19
f 6 29 28
f 19 28 29
f 7 17 31
f 1 30 17
f 8 31 30
f 17 30 31
f 3 32 34
f 9 33 32
f 4 34 33
f 32 33 34
f 3 34 36
f 4 35 34
f 2 36 35
f 34 35 36
f 3 36 38
f 2 37 36
f 6 38 37
f 36 37 38
f 3 38 40
f 6 39 38
f 8 40 39
f 38 39 40
f 3 40 32
f 8 41 40
f 9 32 41
f 40 41 32
f 4 33 25
f 9 22 33
f 5 25 22
f 33 22 25
f 2 35 27
f 4 24 35
f 11 27 24
f 35 24 27
f 6 37 29
f 2 26 37
f 10 29 26
f 37 26 29
f 8 39 31
f 6 28 39
f 7 31 28
f 39 28 31
f 9 41 23
f 8 30 41
f 1 23 30
f 41 30 23
f 42 53 47
f 42 47 43
f 42 43 49
f 42 49 52
f 42 52 53
f 43 47 51
f 47 53 46
f 53 52 44
f 52 49 48
f 49 43 50
f 45 51 46
f 45 46 44
f 45 44 48
f 45 48 50
f 45 50 51
f 46 51 47
f 44 46 53
f 48 44 52
f 50 48 49
f 51 50 43
f 54 65 59
f 54 59 55
f 54 55 61
f 54 61 64
f 54 64 65
f 55 59 63
f 59 65 58
f 65 64 56
f 64 61 60
f 61 55 62
f 57 63 58
f 57 58 56
f 57 56 60
f 57 60 62
f 57 62 63
f 58 63 59
f 56 58 65
f 60 56 64
f 62 60 61
f 63 62 55
f 66 77 71
f 66 71 67
f 66 67 73
f 66 73 76
f 66 76 77
f 67 71 75
f 71 77 70
f 77 76 68
f 76 73 72
f 73 67 74
f 69 75 70
f 69 70 68
f 69 68 72
f 69 72 74
f 69 74 75
f 70 75 71
f 68 70 77
f 72 68 76
f 74 72 73
f 75 74 67
f 78 89 83
f 78 83 79
f 78 79 85
f 78 85 88
f 78 88 89
f 79 83 87
f 83 89 82
f 89 88 80
f 88 85 84
f 85 79 86
f 81 87 82
f 81 82 80
f 81 80 84
f 81 84 86
f 81 86 87
f 82 87 83
f 80 82 89
f 84 80 88
f 86 84 85
f 87 86 79
f 90 101 95
f 90 95 91
f 90 91 97
f 90 97 100
f 90 100 101
f 91 95 99
f 95 101 94
f 101 100 92
f 100 97 96
f 97 91 98
f 93 99 94
f 93 94 92
f 93 92 96
f 93 96 98
f 93 98 99
f 94 99 95
f 92 94 101
f 96 92 100
f 98 96 97
f 99 98 91
f 102 114 116
f 113 115 114
f 107 116 115
f 114 115 116
f 102 116 118
f 107 117 116
f 103 118 117
f 116 117 118
f 102 118 120
f 103 119 118
f 109 120 119
f 118 119 120
f 102 120 122
f 109 121 120
f 112 122 121
f 120 121 122
f 102 122 114
f 112 123 122
f 113 114 123
f 122 123 114
f 103 117 125
f 107 124 117
f 111 125 124
f 117 124 125
f 107 115 127
f 113 126 115
f 106 127 126
f 115 126 127
f 113 123 129
f 112 128 123
f 104 129 128
f 123 128 129
f 112 121 131
f 109 130 121
f 108 131 130
f 121 130 131
f 109 119 133
f 103 132 119
f 110 133 132
f 119 132 133
f 105 134 136
f 111 135 134
f 106 136 135
f 134 135 136
f 105 136 138
f 106 137 136
f 104 138 137
f 136 137 138
f 105 138 140
f 104 139 138
f 108 140 139
f 138 139 140
f 105 140 142
f 108 141 140
f 110 142 141
f 140 141 142
f 105 142 134
f 110 143 142
f 111 134 143
f 142 143 134
f 106 135 127
f 111 124 135
f 107 127 124
f 135 124 127
f 104 137 129
f 106 126 137
f 113 129 126
f 137 126 129
f 108 139 131
f 104 128 139
f 112 131 128
f 139 128 131
f 110 141 133
f 108 130 141
f 109 133 130
f 141 130 133
f 111 143 125
f 110 132 143
f 103 125 132
f 143 132 125
f 144 155 149
f 144 149 145
f 144 145 151
f 144 151 154
f 144 154 155
f 145 149 153
f 149 155 148
f 155 154 146
f 154 151 150
f 151 145 152
f 147 153 148
f 147 148 146
f 147 146 150
f 147 150 152
f 147 152 153
f 148 153 149
f 146 148 155
f 150 146 154
f 152 150 151
f 153 152 145
f 156 167 161
f 156 161 157
f 156 157 163
f 156 163 166
f 156 166 167
f 157 161 165
f 161 167 160
f 167 166 158
f 166 163 162
f 163 157 164
f 159 165 160
f 159 160 158
f 159 158 162
f 159 162 164
f 159 164 165
f 160 165 161
f 158 160 167
f 162 158 166
f 164 162 163
f 165 164 157
