mtllib leviathan_crystal.mtl
g leviathan_crystal
usemtl M_leviathan_crystal
v -1.9715 1.2760 0.0000
v 1.9715 1.2760 0.0000
v -1.9715 -1.2760 0.0000
v 1.9715 -1.2760 0.0000
v 0.0000 -0.7886 1.2760
v 0.0000 0.7886 1.2760
v 0.0000 -0.7886 -1.2760
v 0.0000 0.7886 -1.2760
v 3.1899 0.0000 -0.7886
v 3.1899 0.0000 0.7886
v -3.1899 0.0000 -0.7886
v -3.1899 0.0000 0.7886
v -3.0338 0.7500 0.4635
v -1.8750 0.4635 1.2135
v -1.1588 1.2135 0.7500
v 1.1588 1.2135 0.7500
v 0.0000 1.5000 0.0000
v 1.1588 1.2135 -0.7500
v -1.1588 1.2135 -0.7500
v -1.8750 0.4635 -1.2135
v -3.0338 0.7500 -0.4635
v -3.7500 0.0000 0.0000
v 1.8750 0.4635 1.2135
v 3.0338 0.7500 0.4635
v -1.8750 -0.4635 1.2135
v 0.0000 0.0000 1.5000
v -3.0338 -0.7500 -0.4635
v -3.0338 -0.7500 0.4635
v 0.0000 0.0000 -1.5000
v -1.8750 -0.4635 -1.2135
v 3.0338 0.7500 -0.4635
v 1.8750 0.4635 -1.2135
v 3.0338 -0.7500 0.4635
v 1.8750 -0.4635 1.2135
v 1.1588 -1.2135 0.7500
v -1.1588 -1.2135 0.7500
v 0.0000 -1.5000 0.0000
v -1.1588 -1.2135 -0.7500
v 1.1588 -1.2135 -0.7500
v 1.8750 -0.4635 -1.2135
v 3.0338 -0.7500 -0.4635
v 3.7500 0.0000 0.0000
v -1.1577 2.1828 0.0000
v -0.8423 2.1828 0.0000
v -1.1577 1.4172 0.0000
v -0.8423 1.4172 0.0000
v -1.0000 1.5634 0.2552
v -1.0000 2.0366 0.2552
v -1.0000 1.5634 -0.2552
v -1.0000 2.0366 -0.2552
v -0.7448 1.8000 -0.1577
v -0.7448 1.8000 0.1577
v -1.2552 1.8000 -0.1577
v -1.2552 1.8000 0.1577
v -0.4577 2.1828 0.0000
v -0.1423 2.1828 0.0000
v -0.4577 1.4172 0.0000
v -0.1423 1.4172 0.0000
v -0.3000 1.5634 0.2552
v -0.3000 2.0366 0.2552
v -0.3000 1.5634 -0.2552
v -0.3000 2.0366 -0.2552
v -0.0448 1.8000 -0.1577
v -0.0448 1.8000 0.1577
v -0.5552 1.8000 -0.1577
v -0.5552 1.8000 0.1577
v 0.2423 2.1828 0.0000
v 0.5577 2.1828 0.0000
v 0.2423 1.4172 0.0000
v 0.5577 1.4172 0.0000
v 0.4000 1.5634 0.2552
v 0.4000 2.0366 0.2552
v 0.4000 1.5634 -0.2552
v 0.4000 2.0366 -0.2552
v 0.6552 1.8000 -0.1577
v 0.6552 1.8000 0.1577
v 0.1448 1.8000 -0.1577
v 0.1448 1.8000 0.1577
v 0.9423 2.1828 0.0000
v 1.2577 2.1828 0.0000
v 0.9423 1.4172 0.0000
v 1.2577 1.4172 0.0000
v 1.1000 1.5634 0.2552
v 1.1000 2.0366 0.2552
v 1.1000 1.5634 -0.2552
v 1.1000 2.0366 -0.2552
v 1.3552 1.8000 -0.1577
v 1.3552 1.8000 0.1577
v 0.8448 1.8000 -0.1577
v 0.8448 1.8000 0.1577
v -0.4206 0.1805 0.8000
v 0.4206 0.1805 0.8000
v -0.4206 -1.1805 0.8000
v 0.4206 -1.1805 0.8000
v 0.0000 -0.9206 1.4805
v 0.0000 -0.0794 1.4805
v 0.0000 -0.9206 0.1195
v 0.0000 -0.0794 0.1195
v 0.6805 -0.5000 0.3794
v 0.6805 -0.5000 1.2206
v -0.6805 -0.5000 0.3794
v -0.6805 -0.5000 1.2206
f 0 12 14
f 11 13 12
f 5 14 13
f 12 13 14
f 0 14 16
f 5 15 14
f 1 16 15
f 14 15 16
f 0 16 18
f 1 17 16
f 7 18 17
f 16 17 18
f 0 18 20
f 7 19 18
f 10 20 19
f 18 19 20
f 0 20 12
f 10 21 20
f 11 12 21
f 20 21 12
f 1 15 23
f 5 22 15
f 9 23 22
f 15 22 23
f 5 13 25
f 11 24 13
f 4 25 24
f 13 24 25
f 11 21 27
f 10 26 21
f 2 27 26
f 21 26 27
f 10 19 29
f 7 28 19
f 6 29 28
f 19 28 29
f 7 17 31
f 1 30 17
f 8 31 30
f 17 30 31
f 3 32 34
f 9 33 32
f 4 34 33
f 32 33 34
f 3 34 36
f 4 35 34
f 2 36 35
f 34 35 36
f 3 36 38
f 2 37 36
f 6 38 37
f 36 37 38
f 3 38 40
f 6 39 38
f 8 40 39
f 38 39 40
f 3 40 32
f 8 41 40
f 9 32 41
f 40 41 32
f 4 33 25
f 9 22 33
f 5 25 22
f 33 22 25
f 2 35 27
f 4 24 35
f 11 27 24
f 35 24 27
f 6 37 29
f 2 26 37
f 10 29 26
f 37 26 29
f 8 39 31
f 6 28 39
f 7 31 28
f 39 28 31
f 9 41 23
f 8 30 41
f 1 23 30
f 41 30 23
f 42 53 47
f 42 47 43
f 42 43 49
f 42 49 52
f 42 52 53
f 43 47 51
f 47 53 46
f 53 52 44
f 52 49 48
f 49 43 50
f 45 51 46
f 45 46 44
f 45 44 48
f 45 48 50
f 45 50 51
f 46 51 47
f 44 46 53
f 48 44 52
f 50 48 49
f 51 50 43
f 54 65 59
f 54 59 55
f 54 55 61
f 54 61 64
f 54 64 65
f 55 59 63
f 59 65 58
f 65 64 56
f 64 61 60
f 61 55 62
f 57 63 58
f 57 58 56
f 57 56 60
f 57 60 62
f 57 62 63
f 58 63 59
f 56 58 65
f 60 56 64
f 62 60 61
f 63 62 55
f 66 77 71
f 66 71 67
f 66 67 73
f 66 73 76
f 66 76 77
f 67 71 75
f 71 77 70
f 77 76 68
f 76 73 72
f 73 67 74
f 69 75 70
f 69 70 68
f 69 68 72
f 69 72 74
f 69 74 75
f 70 75 71
f 68 70 77
f 72 68 76
f 74 72 73
f 75 74 67
f 78 89 83
f 78 83 79
f 78 79 85
f 78 85 88
f 78 88 89
f 79 83 87
f 83 89 82
f 89 88 80
f 88 85 84
f 85 79 86
f 81 87 82
f 81 82 80
f 81 80 84
f 81 84 86
f 81 86 87
f 82 87 83
f 80 82 89
f 84 80 88
f 86 84 85
f 87 86 79
f 90 101 95
f 90 95 91
f 90 91 97
f 90 97 100
f 90 100 101
f 91 95 99
f 95 101 94
f 101 100 92
f 100 97 96
f 97 91 98
f 93 99 94
f 93 94 92
f 93 92 96
f 93 96 98
f 93 98 99
f 94 99 95
f 92 94 101
f 96 92 100
f 98 96 97
f 99 98 91
