mtllib spore_walker.mtl
g spore_walker
usemtl M_spore_walker
v -0.7886 3.2760 0.0000
v 0.7886 3.2760 0.0000
v -0.7886 0.7240 0.0000
v 0.7886 0.7240 0.0000
v 0.0000 1.2114 1.2760
v 0.0000 2.7886 1.2760
v 0.0000 1.2114 -1.2760
v 0.0000 2.7886 -1.2760
v 1.2760 2.0000 -0.7886
v 1.2760 2.0000 0.7886
v -1.2760 2.0000 -0.7886
v -1.2760 2.0000 0.7886
v -1.2135 2.7500 0.4635
v -0.7500 2.4635 1.2135
v -0.4635 3.2135 0.7500
v 0.4635 3.2135 0.7500
v 0.0000 3.5000 0.0000
v 0.4635 3.2135 -0.7500
v -0.4635 3.2135 -0.7500
v -0.7500 2.4635 -1.2135
v -1.2135 2.7500 -0.4635
v -1.5000 2.0000 0.0000
v 0.7500 2.4635 1.2135
v 1.2135 2.7500 0.4635
v -0.7500 1.5365 1.2135
v 0.0000 2.0000 1.5000
v -1.2135 1.2500 -0.4635
v -1.2135 1.2500 0.4635
v 0.0000 2.0000 -1.5000
v -0.7500 1.5365 -1.2135
v 1.2135 2.7500 -0.4635
v 0.7500 2.4635 -1.2135
v 1.2135 1.2500 0.4635
v 0.7500 1.5365 1.2135
v 0.4635 0.7865 0.7500
v -0.4635 0.7865 0.7500
v 0.0000 0.5000 0.0000
v -0.4635 0.7865 -0.7500
v 0.4635 0.7865 -0.7500
v 0.7500 1.5365 -1.2135
v 1.2135 1.2500 -0.4635
v 1.5000 2.0000 0.0000
v 0.6686 0.7127 0.0000
v 0.9314 0.7127 0.0000
v 0.6686 0.2873 0.0000
v 0.9314 0.2873 0.0000
v 0.8000 0.3686 0.2127
v 0.8000 0.6314 0.2127
v 0.8000 0.3686 -0.2127
v 0.8000 0.6314 -0.2127
v 1.0127 0.5000 -0.1314
v 1.0127 0.5000 0.1314
v 0.5873 0.5000 -0.1314
v 0.5873 0.5000 0.1314
v 0.2686 0.7127 0.6928
v 0.5314 0.7127 0.6928
v 0.2686 0.2873 0.6928
v 0.5314 0.2873 0.6928
v 0.4000 0.3686 0.9055
v 0.4000 0.6314 0.9055
v 0.4000 0.3686 0.4802
v 0.4000 0.6314 0.4802
v 0.6127 0.5000 0.5614
v 0.6127 0.5000 0.8243
v 0.1873 0.5000 0.5614
v 0.1873 0.5000 0.8243
v -0.5314 0.7127 0.6928
v -0.2686 0.7127 0.6928
v -0.5314 0.2873 0.6928
v -0.2686 0.2873 0.6928
v -0.4000 0.3686 0.9055
v -0.4000 0.6314 0.9055
v -0.4000 0.3686 0.4802
v -0.4000 0.6314 0.4802
v -0.1873 0.5000 0.5614
v -0.1873 0.5000 0.8243
v -0.6127 0.5000 0.5614
v -0.6127 0.5000 0.8243
v -0.9314 0.7127 0.0000
v -0.6686 0.7127 0.0000
v -0.9314 0.2873 0.0000
v -0.6686 0.2873 0.0000
v -0.8000 0.3686 0.2127
v -0.8000 0.6314 0.2127
v -0.8000 0.3686 -0.2127
v -0.8000 0.6314 -0.2127
v -0.5873 0.5000 -0.1314
v -0.5873 0.5000 0.1314
v -1.0127 0.5000 -0.1314
v -1.0127 0.5000 0.1314
v -0.5314 0.7127 -0.6928
v -0.2686 0.7127 -0.6928
v -0.5314 0.2873 -0.6928
v -0.2686 0.2873 -0.6928
v -0.4000 0.3686 -0.4802
v -0.4000 0.6314 -0.4802
v -0.4000 0.3686 -0.9055
v -0.4000 0.6314 -0.9055
v -0.1873 0.5000 -0.8243
v -0.1873 0.5000 -0.5614
v -0.6127 0.5000 -0.8243
v -0.6127 0.5000 -0.5614
v 0.2686 0.7127 -0.6928
v 0.5314 0.7127 -0.6928
v 0.2686 0.2873 -0.6928
v 0.5314 0.2873 -0.6928
v 0.4000 0.3686 -0.4802
v 0.4000 0.6314 -0.4802
v 0.4000 0.3686 -0.9055
v 0.4000 0.6314 -0.9055
v 0.6127 0.5000 -0.8243
v 0.6127 0.5000 -0.5614
v 0.1873 0.5000 -0.8243
v 0.1873 0.5000 -0.5614
v -0.9462 3.1275 0.3271
v -0.7885 3.1275 0.3271
v -0.9462 2.8723 0.3271
v -0.7885 2.8723 0.3271
v -0.8674 2.9211 0.4547
v -0.8674 3.0788 0.4547
v -0.8674 2.9211 0.1995
v -0.8674 3.0788 0.1995
v -0.7398 2.9999 0.2483
v -0.7398 2.9999 0.4060
v -0.9950 2.9999 0.2483
v -0.9950 2.9999 0.4060
v 1.2847 3.5601 1.6501
v 1.4424 3.5601 1.6501
v 1.2847 3.3049 1.6501
v 1.4424 3.3049 1.6501
v 1.3636 3.3537 1.7777
v 1.3636 3.5114 1.7777
v 1.3636 3.3537 1.5225
v 1.3636 3.5114 1.5225
v 1.4911 3.4325 1.5712
v 1.4911 3.4325 1.7289
v 1.2360 3.4325 1.5712
v 1.2360 3.4325 1.7289
v -0.6099 2.8377 -1.1847
v -0.4522 2.8377 -1.1847
v -0.6099 2.5825 -1.1847
v -0.4522 2.5825 -1.1847
v -0.5310 2.6313 -1.0571
v -0.5310 2.7890 -1.0571
v -0.5310 2.6313 -1.3123
v -0.5310 2.7890 -1.3123
v -0.4034 2.7101 -1.2635
v -0.4034 2.7101 -1.1058
v -0.6586 2.7101 -1.2635
v -0.6586 2.7101 -1.1058
v -0.6531 3.0472 0.7908
v -0.4954 3.0472 0.7908
v -0.6531 2.7920 0.7908
v -0.4954 2.7920 0.7908
v -0.5743 2.8407 0.9184
v -0.5743 2.9984 0.9184
v -0.5743 2.8407 0.6632
v -0.5743 2.9984 0.6632
v -0.4467 2.9196 0.7119
v -0.4467 2.9196 0.8696
v -0.7019 2.9196 0.7119
v -0.7019 2.9196 0.8696
v -1.9073 2.8414 0.3020
v -1.7496 2.8414 0.3020
v -1.9073 2.5862 0.3020
v -1.7496 2.5862 0.3020
v -1.8285 2.6349 0.4296
v -1.8285 2.7927 0.4296
v -1.8285 2.6349 0.1744
v -1.8285 2.7927 0.1744
v -1.7009 2.7138 0.2232
v -1.7009 2.7138 0.3809
v -1.9561 2.7138 0.2232
v -1.9561 2.7138 0.3809
v -0.9925 3.9740 -1.4474
v -0.8347 3.9740 -1.4474
v -0.9925 3.7188 -1.4474
v -0.8347 3.7188 -1.4474
v -0.9136 3.7676 -1.3198
v -0.9136 3.9253 -1.3198
v -0.9136 3.7676 -1.5750
v -0.9136 3.9253 -1.5750
v -0.7860 3.8464 -1.5263
v -0.7860 3.8464 -1.3686
v -1.0412 3.8464 -1.5263
v -1.0412 3.8464 -1.3686
v 1.5273 3.8995 -1.6756
v 1.6850 3.8995 -1.6756
v 1.5273 3.6443 -1.6756
v 1.6850 3.6443 -1.6756
v 1.6061 3.6930 -1.5480
v 1.6061 3.8508 -1.5480
v 1.6061 3.6930 -1.8032
v 1.6061 3.8508 -1.8032
v 1.7337 3.7719 -1.7544
v 1.7337 3.7719 -1.5967
v 1.4785 3.7719 -1.7544
v 1.4785 3.7719 -1.5967
v -1.5688 3.8665 1.5704
v -1.4111 3.8665 1.5704
v -1.5688 3.6113 1.5704
v -1.4111 3.6113 1.5704
v -1.4899 3.6600 1.6980
v -1.4899 3.8177 1.6980
v -1.4899 3.6600 1.4428
v -1.4899 3.8177 1.4428
v -1.3623 3.7389 1.4915
v -1.3623 3.7389 1.6492
v -1.6175 3.7389 1.4915
v -1.6175 3.7389 1.6492
v 0.6350 3.5336 -0.1787
v 0.7927 3.5336 -0.1787
v 0.6350 3.2784 -0.1787
v 0.7927 3.2784 -0.1787
v 0.7138 3.3272 -0.0511
v 0.7138 3.4849 -0.0511
v 0.7138 3.3272 -0.3063
v 0.7138 3.4849 -0.3063
v 0.8414 3.4060 -0.2575
v 0.8414 3.4060 -0.0998
v 0.5862 3.4060 -0.2575
v 0.5862 3.4060 -0.0998
v -1.9932 2.9182 -1.8260
v -1.8355 2.9182 -1.8260
v -1.9932 2.6630 -1.8260
v -1.8355 2.6630 -1.8260
v -1.9143 2.7117 -1.6984
v -1.9143 2.8695 -1.6984
v -1.9143 2.7117 -1.9536
v -1.9143 2.8695 -1.9536
v -1.7867 2.7906 -1.9049
v -1.7867 2.7906 -1.7472
v -2.0419 2.7906 -1.9049
v -2.0419 2.7906 -1.7472
v 1.9206 4.0814 -1.3827
v 2.0783 4.0814 -1.3827
v 1.9206 3.8262 -1.3827
v 2.0783 3.8262 -1.3827
v 1.9994 3.8749 -1.2551
v 1.9994 4.0327 -1.2551
v 1.9994 3.8749 -1.5103
v 1.9994 4.0327 -1.5103
v 2.1270 3.9538 -1.4616
v 2.1270 3.9538 -1.3039
v 1.8718 3.9538 -1.4616
v 1.8718 3.9538 -1.3039
v -0.0031 3.8686 -1.4616
v 0.1546 3.8686 -1.4616
v -0.0031 3.6134 -1.4616
v 0.1546 3.6134 -1.4616
v 0.0758 3.6621 -1.3340
v 0.0758 3.8199 -1.3340
v 0.0758 3.6621 -1.5892
v 0.0758 3.8199 -1.5892
v 0.2034 3.7410 -1.5405
v 0.2034 3.7410 -1.3828
v -0.0518 3.7410 -1.5405
v -0.0518 3.7410 -1.3828
f 0 12 14
f 11 13 12
f 5 14 13
f 12 13 14
f 0 14 16
f 5 15 14
f 1 16 15
f 14 15 16
f 0 16 18
f 1 17 16
f 7 18 17
f 16 17 18
f 0 18 20
f 7 19 18
f 10 20 19
f 18 19 20
f 0 20 12
f 10 21 20
f 11 12 21
f 20 21 12
f 1 15 23
f 5 22 15
f 9 23 22
f 15 22 23
f 5 13 25
f 11 24 13
f 4 25 24
f 13 24 25
f 11 21 27
f 10 26 21
f 2 27 26
f 21 26 27
f 10 19 29
f 7 28 19
f 6 29 28
f 19 28 29
f 7 17 31
f 1 30 17
f 8 31 30
f 17 30 31
f 3 32 34
f 9 33 32
f 4 34 33
f 32 33 34
f 3 34 36
f 4 35 34
f 2 36 35
f 34 35 36
f 3 36 38
f 2 37 36
f 6 38 37
f 36 37 38
f 3 38 40
f 6 39 38
f 8 40 39
f 38 39 40
f 3 40 32
f 8 41 40
f 9 32 41
f 40 41 32
f 4 33 25
f 9 22 33
f 5 25 22
f 33 22 25
f 2 35 27
f 4 24 35
f 11 27 24
f 35 24 27
f 6 37 29
f 2 26 37
f 10 29 26
f 37 26 29
f 8 39 31
f 6 28 39
f 7 31 28
f 39 28 31
f 9 41 23
f 8 30 41
f 1 23 30
f 41 30 23
f 42 53 47
f 42 47 43
f 42 43 49
f 42 49 52
f 42 52 53
f 43 47 51
f 47 53 46
f 53 52 44
f 52 49 48
f 49 43 50
f 45 51 46
f 45 46 44
f 45 44 48
f 45 48 50
f 45 50 51
f 46 51 47
f 44 46 53
f 48 44 52
f 50 48 49
f 51 50 43
f 54 65 59
f 54 59 55
f 54 55 61
f 54 61 64
f 54 64 65
f 55 59 63
f 59 65 58
f 65 64 56
f 64 61 60
f 61 55 62
f 57 63 58
f 57 58 56
f 57 56 60
f 57 60 62
f 57 62 63
f 58 63 59
f 56 58 65
f 60 56 64
f 62 60 61
f 63 62 55
f 66 77 71
f 66 71 67
f 66 67 73
f 66 73 76
f 66 76 77
f 67 71 75
f 71 77 70
f 77 76 68
f 76 73 72
f 73 67 74
f 69 75 70
f 69 70 68
f 69 68 72
f 69 72 74
f 69 74 75
f 70 75 71
f 68 70 77
f 72 68 76
f 74 72 73
f 75 74 67
f 78 89 83
f 78 83 79
f 78 79 85
f 78 85 88
f 78 88 89
f 79 83 87
f 83 89 82
f 89 88 80
f 88 85 84
f 85 79 86
f 81 87 82
f 81 82 80
f 81 80 84
f 81 84 86
f 81 86 87
f 82 87 83
f 80 82 89
f 84 80 88
f 86 84 85
f 87 86 79
f 90 101 95
f 90 95 91
f 90 91 97
f 90 97 100
f 90 100 101
f 91 95 99
f 95 101 94
f 101 100 92
f 100 97 96
f 97 91 98
f 93 99 94
f 93 94 92
f 93 92 96
f 93 96 98
f 93 98 99
f 94 99 95
f 92 94 101
f 96 92 100
f 98 96 97
f 99 98 91
f 102 113 107
f 102 107 103
f 102 103 109
f 102 109 112
f 102 112 113
f 103 107 111
f 107 113 106
f 113 112 104
f 112 109 108
f 109 103 110
f 105 111 106
f 105 106 104
f 105 104 108
f 105 108 110
f 105 110 111
f 106 111 107
f 104 106 113
f 108 104 112
f 110 108 109
f 111 110 103
f 114 125 119
f 114 119 115
f 114 115 121
f 114 121 124
f 114 124 125
f 115 119 123
f 119 125 118
f 125 124 116
f 124 121 120
f 121 115 122
f 117 123 118
f 117 118 116
f 117 116 120
f 117 120 122
f 117 122 123
f 118 123 119
f 116 118 125
f 120 116 124
f 122 120 121
f 123 122 115
f 126 137 131
f 126 131 127
f 126 127 133
f 126 133 136
f 126 136 137
f 127 131 135
f 131 137 130
f 137 136 128
f 136 133 132
f 133 127 134
f 129 135 130
f 129 130 128
f 129 128 132
f 129 132 134
f 129 134 135
f 130 135 131
f 128 130 137
f 132 128 136
f 134 132 133
f 135 134 127
f 138 149 143
f 138 143 139
f 138 139 145
f 138 145 148
f 138 148 149
f 139 143 147
f 143 149 142
f 149 148 140
f 148 145 144
f 145 139 146
f 141 147 142
f 141 142 140
f 141 140 144
f 141 144 146
f 141 146 147
f 142 147 143
f 140 142 149
f 144 140 148
f 146 144 145
f 147 146 139
f 150 161 155
f 150 155 151
f 150 151 157
f 150 157 160
f 150 160 161
f 151 155 159
f 155 161 154
f 161 160 152
f 160 157 156
f 157 151 158
f 153 159 154
f 153 154 152
f 153 152 156
f 153 156 158
f 153 158 159
f 154 159 155
f 152 154 161
f 156 152 160
f 158 156 157
f 159 158 151
f 162 173 167
f 162 167 163
f 162 163 169
f 162 169 172
f 162 172 173
f 163 167 171
f 167 173 166
f 173 172 164
f 172 169 168
f 169 163 170
f 165 171 166
f 165 166 164
f 165 164 168
f 165 168 170
f 165 170 171
f 166 171 167
f 164 166 173
f 168 164 172
f 170 168 169
f 171 170 163
f 174 185 179
f 174 179 175
f 174 175 181
f 174 181 184
f 174 184 185
f 175 179 183
f 179 185 178
f 185 184 176
f 184 181 180
f 181 175 182
f 177 183 178
f 177 178 176
f 177 176 180
f 177 180 182
f 177 182 183
f 178 183 179
f 176 178 185
f 180 176 184
f 182 180 181
f 183 182 175
f 186 197 191
f 186 191 187
f 186 187 193
f 186 193 196
f 186 196 197
f 187 191 195
f 191 197 190
f 197 196 188
f 196 193 192
f 193 187 194
f 189 195 190
f 189 190 188
f 189 188 192
f 189 192 194
f 189 194 195
f 190 195 191
f 188 190 197
f 192 188 196
f 194 192 193
f 195 194 187
f 198 209 203
f 198 203 199
f 198 199 205
f 198 205 208
f 198 208 209
f 199 203 207
f 203 209 202
f 209 208 200
f 208 205 204
f 205 199 206
f 201 207 202
f 201 202 200
f 201 200 204
f 201 204 206
f 201 206 207
f 202 207 203
f 200 202 209
f 204 200 208
f 206 204 205
f 207 206 199
f 210 221 215
f 210 215 211
f 210 211 217
f 210 217 220
f 210 220 221
f 211 215 219
f 215 221 214
f 221 220 212
f 220 217 216
f 217 211 218
f 213 219 214
f 213 214 212
f 213 212 216
f 213 216 218
f 213 218 219
f 214 219 215
f 212 214 221
f 216 212 220
f 218 216 217
f 219 218 211
f 222 233 227
f 222 227 223
f 222 223 229
f 222 229 232
f 222 232 233
f 223 227 231
f 227 233 226
f 233 232 224
f 232 229 228
f 229 223 230
f 225 231 226
f 225 226 224
f 225 224 228
f 225 228 230
f 225 230 231
f 226 231 227
f 224 226 233
f 228 224 232
f 230 228 229
f 231 230 223
f 234 245 239
f 234 239 235
f 234 235 241
f 234 241 244
f 234 244 245
f 235 239 243
f 239 245 238
f 245 244 236
f 244 241 240
f 241 235 242
f 237 243 238
f 237 238 236
f 237 236 240
f 237 240 242
f 237 242 243
f 238 243 239
f 236 238 245
f 240 236 244
f 242 240 241
f 243 242 235
f 246 257 251
f 246 251 247
f 246 247 253
f 246 253 256
f 246 256 257
f 247 251 255
f 251 257 250
f 257 256 248
f 256 253 252
f 253 247 254
f 249 255 250
f 249 250 248
f 249 248 252
f 249 252 254
f 249 254 255
f 250 255 251
f 248 250 257
f 252 248 256
f 254 252 253
f 255 254 247
