mtllib void_tentacle.mtl
g void_tentacle
usemtl M_void_tentacle
v -0.4206 0.6805 0.0000
v 0.4206 0.6805 0.0000
v -0.4206 -0.6805 0.0000
v 0.4206 -0.6805 0.0000
v 0.0000 -0.4206 0.6805
v 0.0000 0.4206 0.6805
v 0.0000 -0.4206 -0.6805
v 0.0000 0.4206 -0.6805
v 0.6805 0.0000 -0.4206
v 0.6805 0.0000 0.4206
v -0.6805 0.0000 -0.4206
v -0.6805 0.0000 0.4206
v -0.6472 0.4000 0.2472
v -0.4000 0.2472 0.6472
v -0.2472 0.6472 0.4000
v 0.2472 0.6472 0.4000
v 0.0000 0.8000 0.0000
v 0.2472 0.6472 -0.4000
v -0.2472 0.6472 -0.4000
v -0.4000 0.2472 -0.6472
v -0.6472 0.4000 -0.2472
v -0.8000 0.0000 0.0000
v 0.4000 0.2472 0.6472
v 0.6472 0.4000 0.2472
v -0.4000 -0.2472 0.6472
v 0.0000 0.0000 0.8000
v -0.6472 -0.4000 -0.2472
v -0.6472 -0.4000 0.2472
v 0.0000 0.0000 -0.8000
v -0.4000 -0.2472 -0.6472
v 0.6472 0.4000 -0.2472
v 0.4000 0.2472 -0.6472
v 0.6472 -0.4000 0.2472
v 0.4000 -0.2472 0.6472
v 0.2472 -0.6472 0.4000
v -0.2472 -0.6472 0.4000
v 0.0000 -0.8000 0.0000
v -0.2472 -0.6472 -0.4000
v 0.2472 -0.6472 -0.4000
v 0.4000 -0.2472 -0.6472
v 0.6472 -0.4000 -0.2472
v 0.8000 0.0000 0.0000
v 0.8686 0.2127 0.0000
v 1.1314 0.2127 0.0000
v 0.8686 -0.2127 0.0000
v 1.1314 -0.2127 0.0000
v 1.0000 -0.1314 0.2127
v 1.0000 0.1314 0.2127
v 1.0000 -0.1314 -0.2127
v 1.0000 0.1314 -0.2127
v 1.2127 0.0000 -0.1314
v 1.2127 0.0000 0.1314
v 0.7873 0.0000 -0.1314
v 0.7873 0.0000 0.1314
v 1.3930 0.5537 0.5617
v 1.6033 0.5537 0.5617
v 1.3930 0.2134 0.5617
v 1.6033 0.2134 0.5617
v 1.4982 0.2784 0.7318
v 1.4982 0.4887 0.7318
v 1.4982 0.2784 0.3915
v 1.4982 0.4887 0.3915
v 1.6683 0.3835 0.4565
v 1.6683 0.3835 0.6668
v 1.3280 0.3835 0.4565
v 1.3280 0.3835 0.6668
v 1.8520 1.0532 1.0543
v 2.0098 1.0532 1.0543
v 1.8520 0.7980 1.0543
v 2.0098 0.7980 1.0543
v 1.9309 0.8468 1.1819
v 1.9309 1.0045 1.1819
v 1.9309 0.8468 0.9267
v 1.9309 1.0045 0.9267
v 2.0585 0.9256 0.9755
v 2.0585 0.9256 1.1332
v 1.8033 0.9256 0.9755
v 1.8033 0.9256 1.1332
v 2.5893 1.4816 0.9278
v 2.6944 1.4816 0.9278
v 2.5893 1.3114 0.9278
v 2.6944 1.3114 0.9278
v 2.6418 1.3439 1.0128
v 2.6418 1.4491 1.0128
v 2.6418 1.3439 0.8427
v 2.6418 1.4491 0.8427
v 2.7269 1.3965 0.8752
v 2.7269 1.3965 0.9803
v 2.5568 1.3965 0.8752
v 2.5568 1.3965 0.9803
v 0.5757 0.2127 0.7071
v 0.8385 0.2127 0.7071
v 0.5757 -0.2127 0.7071
v 0.8385 -0.2127 0.7071
v 0.7071 -0.1314 0.9198
v 0.7071 0.1314 0.9198
v 0.7071 -0.1314 0.4944
v 0.7071 0.1314 0.4944
v 0.9198 0.0000 0.5757
v 0.9198 0.0000 0.8385
v 0.4944 0.0000 0.5757
v 0.4944 0.0000 0.8385
v 0.5571 0.5537 1.4565
v 0.7674 0.5537 1.4565
v 0.5571 0.2134 1.4565
v 0.7674 0.2134 1.4565
v 0.6622 0.2784 1.6267
v 0.6622 0.4887 1.6267
v 0.6622 0.2784 1.2864
v 0.6622 0.4887 1.2864
v 0.8323 0.3835 1.3514
v 0.8323 0.3835 1.5617
v 0.4921 0.3835 1.3514
v 0.4921 0.3835 1.5617
v 0.5410 1.0532 2.1109
v 0.6987 1.0532 2.1109
v 0.5410 0.7980 2.1109
v 0.6987 0.7980 2.1109
v 0.6198 0.8468 2.2385
v 0.6198 1.0045 2.2385
v 0.6198 0.8468 1.9833
v 0.6198 1.0045 1.9833
v 0.7474 0.9256 2.0320
v 0.7474 0.9256 2.1897
v 0.4922 0.9256 2.0320
v 0.4922 0.9256 2.1897
v 1.1594 1.4816 2.5241
v 1.2646 1.4816 2.5241
v 1.1594 1.3114 2.5241
v 1.2646 1.3114 2.5241
v 1.2120 1.3439 2.6092
v 1.2120 1.4491 2.6092
v 1.2120 1.3439 2.4390
v 1.2120 1.4491 2.4390
v 1.2971 1.3965 2.4715
v 1.2971 1.3965 2.5767
v 1.1270 1.3965 2.4715
v 1.1270 1.3965 2.5767
v -0.1314 0.2127 1.0000
v 0.1314 0.2127 1.0000
v -0.1314 -0.2127 1.0000
v 0.1314 -0.2127 1.0000
v 0.0000 -0.1314 1.2127
v 0.0000 0.1314 1.2127
v 0.0000 -0.1314 0.7873
v 0.0000 0.1314 0.7873
v 0.2127 0.0000 0.8686
v 0.2127 0.0000 1.1314
v -0.2127 0.0000 0.8686
v -0.2127 0.0000 1.1314
v -0.6668 0.5537 1.4982
v -0.4565 0.5537 1.4982
v -0.6668 0.2134 1.4982
v -0.4565 0.2134 1.4982
v -0.5617 0.2784 1.6683
v -0.5617 0.4887 1.6683
v -0.5617 0.2784 1.3280
v -0.5617 0.4887 1.3280
v -0.3915 0.3835 1.3930
v -0.3915 0.3835 1.6033
v -0.7318 0.3835 1.3930
v -0.7318 0.3835 1.6033
v -1.1332 1.0532 1.9309
v -0.9755 1.0532 1.9309
v -1.1332 0.7980 1.9309
v -0.9755 0.7980 1.9309
v -1.0543 0.8468 2.0585
v -1.0543 1.0045 2.0585
v -1.0543 0.8468 1.8033
v -1.0543 1.0045 1.8033
v -0.9267 0.9256 1.8520
v -0.9267 0.9256 2.0098
v -1.1819 0.9256 1.8520
v -1.1819 0.9256 2.0098
v -0.9803 1.4816 2.6418
v -0.8752 1.4816 2.6418
v -0.9803 1.3114 2.6418
v -0.8752 1.3114 2.6418
v -0.9278 1.3439 2.7269
v -0.9278 1.4491 2.7269
v -0.9278 1.3439 2.5568
v -0.9278 1.4491 2.5568
v -0.8427 1.3965 2.5893
v -0.8427 1.3965 2.6944
v -1.0128 1.3965 2.5893
v -1.0128 1.3965 2.6944
v -0.8385 0.2127 0.7071
v -0.5757 0.2127 0.7071
v -0.8385 -0.2127 0.7071
v -0.5757 -0.2127 0.7071
v -0.7071 -0.1314 0.9198
v -0.7071 0.1314 0.9198
v -0.7071 -0.1314 0.4944
v -0.7071 0.1314 0.4944
v -0.4944 0.0000 0.5757
v -0.4944 0.0000 0.8385
v -0.9198 0.0000 0.5757
v -0.9198 0.0000 0.8385
v -1.5617 0.5537 0.6622
v -1.3514 0.5537 0.6622
v -1.5617 0.2134 0.6622
v -1.3514 0.2134 0.6622
v -1.4565 0.2784 0.8323
v -1.4565 0.4887 0.8323
v -1.4565 0.2784 0.4921
v -1.4565 0.4887 0.4921
v -1.2864 0.3835 0.5571
v -1.2864 0.3835 0.7674
v -1.6267 0.3835 0.5571
v -1.6267 0.3835 0.7674
v -2.1897 1.0532 0.6198
v -2.0320 1.0532 0.6198
v -2.1897 0.7980 0.6198
v -2.0320 0.7980 0.6198
v -2.1109 0.8468 0.7474
v -2.1109 1.0045 0.7474
v -2.1109 0.8468 0.4922
v -2.1109 1.0045 0.4922
v -1.9833 0.9256 0.5410
v -1.9833 0.9256 0.6987
v -2.2385 0.9256 0.5410
v -2.2385 0.9256 0.6987
v -2.5767 1.4816 1.2120
v -2.4715 1.4816 1.2120
v -2.5767 1.3114 1.2120
v -2.4715 1.3114 1.2120
v -2.5241 1.3439 1.2971
v -2.5241 1.4491 1.2971
v -2.5241 1.3439 1.1270
v -2.5241 1.4491 1.1270
v -2.4390 1.3965 1.1594
v -2.4390 1.3965 1.2646
v -2.6092 1.3965 1.1594
v -2.6092 1.3965 1.2646
v -1.1314 0.2127 0.0000
v -0.8686 0.2127 0.0000
v -1.1314 -0.2127 0.0000
v -0.8686 -0.2127 0.0000
v -1.0000 -0.1314 0.2127
v -1.0000 0.1314 0.2127
v -1.0000 -0.1314 -0.2127
v -1.0000 0.1314 -0.2127
v -0.7873 0.0000 -0.1314
v -0.7873 0.0000 0.1314
v -1.2127 0.0000 -0.1314
v -1.2127 0.0000 0.1314
v -1.6033 0.5537 -0.5617
v -1.3930 0.5537 -0.5617
v -1.6033 0.2134 -0.5617
v -1.3930 0.2134 -0.5617
v -1.4982 0.2784 -0.3915
v -1.4982 0.4887 -0.3915
v -1.4982 0.2784 -0.7318
v -1.4982 0.4887 -0.7318
v -1.3280 0.3835 -0.6668
v -1.3280 0.3835 -0.4565
v -1.6683 0.3835 -0.6668
v -1.6683 0.3835 -0.4565
v -2.0098 1.0532 -1.0543
v -1.8520 1.0532 -1.0543
v -2.0098 0.7980 -1.0543
v -1.8520 0.7980 -1.0543
v -1.9309 0.8468 -0.9267
v -1.9309 1.0045 -0.9267
v -1.9309 0.8468 -1.1819
v -1.9309 1.0045 -1.1819
v -1.8033 0.9256 -1.1332
v -1.8033 0.9256 -0.9755
v -2.0585 0.9256 -1.1332
v -2.0585 0.9256 -0.9755
v -2.6944 1.4816 -0.9278
v -2.5893 1.4816 -0.9278
v -2.6944 1.3114 -0.9278
v -2.5893 1.3114 -0.9278
v -2.6418 1.3439 -0.8427
v -2.6418 1.4491 -0.8427
v -2.6418 1.3439 -1.0128
v -2.6418 1.4491 -1.0128
v -2.5568 1.3965 -0.9803
v -2.5568 1.3965 -0.8752
v -2.7269 1.3965 -0.9803
v -2.7269 1.3965 -0.8752
v -0.8385 0.2127 -0.7071
v -0.5757 0.2127 -0.7071
v -0.8385 -0.2127 -0.7071
v -0.5757 -0.2127 -0.7071
v -0.7071 -0.1314 -0.4944
v -0.7071 0.1314 -0.4944
v -0.7071 -0.1314 -0.9198
v -0.7071 0.1314 -0.9198
v -0.4944 0.0000 -0.8385
v -0.4944 0.0000 -0.5757
v -0.9198 0.0000 -0.8385
v -0.9198 0.0000 -0.5757
v -0.7674 0.5537 -1.4565
v -0.5571 0.5537 -1.4565
v -0.7674 0.2134 -1.4565
v -0.5571 0.2134 -1.4565
v -0.6622 0.2784 -1.2864
v -0.6622 0.4887 -1.2864
v -0.6622 0.2784 -1.6267
v -0.6622 0.4887 -1.6267
v -0.4921 0.3835 -1.5617
v -0.4921 0.3835 -1.3514
v -0.8323 0.3835 -1.5617
v -0.8323 0.3835 -1.3514
v -0.6987 1.0532 -2.1109
v -0.5410 1.0532 -2.1109
v -0.6987 0.7980 -2.1109
v -0.5410 0.7980 -2.1109
v -0.6198 0.8468 -1.9833
v -0.6198 1.0045 -1.9833
v -0.6198 0.8468 -2.2385
v -0.6198 1.0045 -2.2385
v -0.4922 0.9256 -2.1897
v -0.4922 0.9256 -2.0320
v -0.7474 0.9256 -2.1897
v -0.7474 0.9256 -2.0320
v -1.2646 1.4816 -2.5241
v -1.1594 1.4816 -2.5241
v -1.2646 1.3114 -2.5241
v -1.1594 1.3114 -2.5241
v -1.2120 1.3439 -2.4390
v -1.2120 1.4491 -2.4390
v -1.2120 1.3439 -2.6092
v -1.2120 1.4491 -2.6092
v -1.1270 1.3965 -2.5767
v -1.1270 1.3965 -2.4715
v -1.2971 1.3965 -2.5767
v -1.2971 1.3965 -2.4715
v -0.1314 0.2127 -1.0000
v 0.1314 0.2127 -1.0000
v -0.1314 -0.2127 -1.0000
v 0.1314 -0.2127 -1.0000
v -0.0000 -0.1314 -0.7873
v -0.0000 0.1314 -0.7873
v -0.0000 -0.1314 -1.2127
v -0.0000 0.1314 -1.2127
v 0.2127 0.0000 -1.1314
v 0.2127 0.0000 -0.8686
v -0.2127 0.0000 -1.1314
v -0.2127 0.0000 -0.8686
v 0.4565 0.5537 -1.4982
v 0.6668 0.5537 -1.4982
v 0.4565 0.2134 -1.4982
v 0.6668 0.2134 -1.4982
v 0.5617 0.2784 -1.3280
v 0.5617 0.4887 -1.3280
v 0.5617 0.2784 -1.6683
v 0.5617 0.4887 -1.6683
v 0.7318 0.3835 -1.6033
v 0.7318 0.3835 -1.3930
v 0.3915 0.3835 -1.6033
v 0.3915 0.3835 -1.3930
v 0.9755 1.0532 -1.9309
v 1.1332 1.0532 -1.9309
v 0.9755 0.7980 -1.9309
v 1.1332 0.7980 -1.9309
v 1.0543 0.8468 -1.8033
v 1.0543 1.0045 -1.8033
v 1.0543 0.8468 -2.0585
v 1.0543 1.0045 -2.0585
v 1.1819 0.9256 -2.0098
v 1.1819 0.9256 -1.8520
v 0.9267 0.9256 -2.0098
v 0.9267 0.9256 -1.8520
v 0.8752 1.4816 -2.6418
v 0.9803 1.4816 -2.6418
v 0.8752 1.3114 -2.6418
v 0.9803 1.3114 -2.6418
v 0.9278 1.3439 -2.5568
v 0.9278 1.4491 -2.5568
v 0.9278 1.3439 -2.7269
v 0.9278 1.4491 -2.7269
v 1.0128 1.3965 -2.6944
v 1.0128 1.3965 -2.5893
v 0.8427 1.3965 -2.6944
v 0.8427 1.3965 -2.5893
v 0.5757 0.2127 -0.7071
v 0.8385 0.2127 -0.7071
v 0.5757 -0.2127 -0.7071
v 0.8385 -0.2127 -0.7071
v 0.7071 -0.1314 -0.4944
v 0.7071 0.1314 -0.4944
v 0.7071 -0.1314 -0.9198
v 0.7071 0.1314 -0.9198
v 0.9198 0.0000 -0.8385
v 0.9198 0.0000 -0.5757
v 0.4944 0.0000 -0.8385
v 0.4944 0.0000 -0.5757
v 1.3514 0.5537 -0.6622
v 1.5617 0.5537 -0.6622
v 1.3514 0.2134 -0.6622
v 1.5617 0.2134 -0.6622
v 1.4565 0.2784 -0.4921
v 1.4565 0.4887 -0.4921
v 1.4565 0.2784 -0.8323
v 1.4565 0.4887 -0.8323
v 1.6267 0.3835 -0.7674
v 1.6267 0.3835 -0.5571
v 1.2864 0.3835 -0.7674
v 1.2864 0.3835 -0.5571
v 2.0320 1.0532 -0.6198
v 2.1897 1.0532 -0.6198
v 2.0320 0.7980 -0.6198
v 2.1897 0.7980 -0.6198
v 2.1109 0.8468 -0.4922
v 2.1109 1.0045 -0.4922
v 2.1109 0.8468 -0.7474
v 2.1109 1.0045 -0.7474
v 2.2385 0.9256 -0.6987
v 2.2385 0.9256 -0.5410
v 1.9833 0.9256 -0.6987
v 1.9833 0.9256 -0.5410
v 2.4715 1.4816 -1.2120
v 2.5767 1.4816 -1.2120
v 2.4715 1.3114 -1.2120
v 2.5767 1.3114 -1.2120
v 2.5241 1.3439 -1.1270
v 2.5241 1.4491 -1.1270
v 2.5241 1.3439 -1.2971
v 2.5241 1.4491 -1.2971
v 2.6092 1.3965 -1.2646
v 2.6092 1.3965 -1.1594
v 2.4390 1.3965 -1.2646
v 2.4390 1.3965 -1.1594
f 0 12 14
f 11 13 12
f 5 14 13
f 12 13 14
f 0 14 16
f 5 15 14
f 1 16 15
f 14 15 16
f 0 16 18
f 1 17 16
f 7 18 17
f 16 17 18
f 0 18 20
f 7 19 18
f 10 20 19
f 18 19 20
f 0 20 12
f 10 21 20
f 11 12 21
f 20 21 12
f 1 15 23
f 5 22 15
f 9 23 22
f 15 22 23
f 5 13 25
f 11 24 13
f 4 25 24
f 13 24 25
f 11 21 27
f 10 26 21
f 2 27 26
f 21 26 27
f 10 19 29
f 7 28 19
f 6 29 28
f 19 28 29
f 7 17 31
f 1 30 17
f 8 31 30
f 17 30 31
f 3 32 34
f 9 33 32
f 4 34 33
f 32 33 34
f 3 34 36
f 4 35 34
f 2 36 35
f 34 35 36
f 3 36 38
f 2 37 36
f 6 38 37
f 36 37 38
f 3 38 40
f 6 39 38
f 8 40 39
f 38 39 40
f 3 40 32
f 8 41 40
f 9 32 41
f 40 41 32
f 4 33 25
f 9 22 33
f 5 25 22
f 33 22 25
f 2 35 27
f 4 24 35
f 11 27 24
f 35 24 27
f 6 37 29
f 2 26 37
f 10 29 26
f 37 26 29
f 8 39 31
f 6 28 39
f 7 31 28
f 39 28 31
f 9 41 23
f 8 30 41
f 1 23 30
f 41 30 23
f 42 53 47
f 42 47 43
f 42 43 49
f 42 49 52
f 42 52 53
f 43 47 51
f 47 53 46
f 53 52 44
f 52 49 48
f 49 43 50
f 45 51 46
f 45 46 44
f 45 44 48
f 45 48 50
f 45 50 51
f 46 51 47
f 44 46 53
f 48 44 52
f 50 48 49
f 51 50 43
f 54 65 59
f 54 59 55
f 54 55 61
f 54 61 64
f 54 64 65
f 55 59 63
f 59 65 58
f 65 64 56
f 64 61 60
f 61 55 62
f 57 63 58
f 57 58 56
f 57 56 60
f 57 60 62
f 57 62 63
f 58 63 59
f 56 58 65
f 60 56 64
f 62 60 61
f 63 62 55
f 66 77 71
f 66 71 67
f 66 67 73
f 66 73 76
f 66 76 77
f 67 71 75
f 71 77 70
f 77 76 68
f 76 73 72
f 73 67 74
f 69 75 70
f 69 70 68
f 69 68 72
f 69 72 74
f 69 74 75
f 70 75 71
f 68 70 77
f 72 68 76
f 74 72 73
f 75 74 67
f 78 89 83
f 78 83 79
f 78 79 85
f 78 85 88
f 78 88 89
f 79 83 87
f 83 89 82
f 89 88 80
f 88 85 84
f 85 79 86
f 81 87 82
f 81 82 80
f 81 80 84
f 81 84 86
f 81 86 87
f 82 87 83
f 80 82 89
f 84 80 88
f 86 84 85
f 87 86 79
f 90 101 95
f 90 95 91
f 90 91 97
f 90 97 100
f 90 100 101
f 91 95 99
f 95 101 94
f 101 100 92
f 100 97 96
f 97 91 98
f 93 99 94
f 93 94 92
f 93 92 96
f 93 96 98
f 93 98 99
f 94 99 95
f 92 94 101
f 96 92 100
f 98 96 97
f 99 98 91
f 102 113 107
f 102 107 103
f 102 103 109
f 102 109 112
f 102 112 113
f 103 107 111
f 107 113 106
f 113 112 104
f 112 109 108
f 109 103 110
f 105 111 106
f 105 106 104
f 105 104 108
f 105 108 110
f 105 110 111
f 106 111 107
f 104 106 113
f 108 104 112
f 110 108 109
f 111 110 103
f 114 125 119
f 114 119 115
f 114 115 121
f 114 121 124
f 114 124 125
f 115 119 123
f 119 125 118
f 125 124 116
f 124 121 120
f 121 115 122
f 117 123 118
f 117 118 116
f 117 116 120
f 117 120 122
f 117 122 123
f 118 123 119
f 116 118 125
f 120 116 124
f 122 120 121
f 123 122 115
f 126 137 131
f 126 131 127
f 126 127 133
f 126 133 136
f 126 136 137
f 127 131 135
f 131 137 130
f 137 136 128
f 136 133 132
f 133 127 134
f 129 135 130
f 129 130 128
f 129 128 132
f 129 132 134
f 129 134 135
f 130 135 131
f 128 130 137
f 132 128 136
f 134 132 133
f 135 134 127
f 138 149 143
f 138 143 139
f 138 139 145
f 138 145 148
f 138 148 149
f 139 143 147
f 143 149 142
f 149 148 140
f 148 145 144
f 145 139 146
f 141 147 142
f 141 142 140
f 141 140 144
f 141 144 146
f 141 146 147
f 142 147 143
f 140 142 149
f 144 140 148
f 146 144 145
f 147 146 139
f 150 161 155
f 150 155 151
f 150 151 157
f 150 157 160
f 150 160 161
f 151 155 159
f 155 161 154
f 161 160 152
f 160 157 156
f 157 151 158
f 153 159 154
f 153 154 152
f 153 152 156
f 153 156 158
f 153 158 159
f 154 159 155
f 152 154 161
f 156 152 160
f 158 156 157
f 159 158 151
f 162 173 167
f 162 167 163
f 162 163 169
f 162 169 172
f 162 172 173
f 163 167 171
f 167 173 166
f 173 172 164
f 172 169 168
f 169 163 170
f 165 171 166
f 165 166 164
f 165 164 168
f 165 168 170
f 165 170 171
f 166 171 167
f 164 166 173
f 168 164 172
f 170 168 169
f 171 170 163
f 174 185 179
f 174 179 175
f 174 175 181
f 174 181 184
f 174 184 185
f 175 179 183
f 179 185 178
f 185 184 176
f 184 181 180
f 181 175 182
f 177 183 178
f 177 178 176
f 177 176 180
f 177 180 182
f 177 182 183
f 178 183 179
f 176 178 185
f 180 176 184
f 182 180 181
f 183 182 175
f 186 197 191
f 186 191 187
f 186 187 193
f 186 193 196
f 186 196 197
f 187 191 195
f 191 197 190
f 197 196 188
f 196 193 192
f 193 187 194
f 189 195 190
f 189 190 188
f 189 188 192
f 189 192 194
f 189 194 195
f 190 195 191
f 188 190 197
f 192 188 196
f 194 192 193
f 195 194 187
f 198 209 203
f 198 203 199
f 198 199 205
f 198 205 208
f 198 208 209
f 199 203 207
f 203 209 202
f 209 208 200
f 208 205 204
f 205 199 206
f 201 207 202
f 201 202 200
f 201 200 204
f 201 204 206
f 201 206 207
f 202 207 203
f 200 202 209
f 204 200 208
f 206 204 205
f 207 206 199
f 210 221 215
f 210 215 211
f 210 211 217
f 210 217 220
f 210 220 221
f 211 215 219
f 215 221 214
f 221 220 212
f 220 217 216
f 217 211 218
f 213 219 214
f 213 214 212
f 213 212 216
f 213 216 218
f 213 218 219
f 214 219 215
f 212 214 221
f 216 212 220
f 218 216 217
f 219 218 211
f 222 233 227
f 222 227 223
f 222 223 229
f 222 229 232
f 222 232 233
f 223 227 231
f 227 233 226
f 233 232 224
f 232 229 228
f 229 223 230
f 225 231 226
f 225 226 224
f 225 224 228
f 225 228 230
f 225 230 231
f 226 231 227
f 224 226 233
f 228 224 232
f 230 228 229
f 231 230 223
f 234 245 239
f 234 239 235
f 234 235 241
f 234 241 244
f 234 244 245
f 235 239 243
f 239 245 238
f 245 244 236
f 244 241 240
f 241 235 242
f 237 243 238
f 237 238 236
f 237 236 240
f 237 240 242
f 237 242 243
f 238 243 239
f 236 238 245
f 240 236 244
f 242 240 241
f 243 242 235
f 246 257 251
f 246 251 247
f 246 247 253
f 246 253 256
f 246 256 257
f 247 251 255
f 251 257 250
f 257 256 248
f 256 253 252
f 253 247 254
f 249 255 250
f 249 250 248
f 249 248 252
f 249 252 254
f 249 254 255
f 250 255 251
f 248 250 257
f 252 248 256
f 254 252 253
f 255 254 247
f 258 269 263
f 258 263 259
f 258 259 265
f 258 265 268
f 258 268 269
f 259 263 267
f 263 269 262
f 269 268 260
f 268 265 264
f 265 259 266
f 261 267 262
f 261 262 260
f 261 260 264
f 261 264 266
f 261 266 267
f 262 267 263
f 260 262 269
f 264 260 268
f 266 264 265
f 267 266 259
f 270 281 275
f 270 275 271
f 270 271 277
f 270 277 280
f 270 280 281
f 271 275 279
f 275 281 274
f 281 280 272
f 280 277 276
f 277 271 278
f 273 279 274
f 273 274 272
f 273 272 276
f 273 276 278
f 273 278 279
f 274 279 275
f 272 274 281
f 276 272 280
f 278 276 277
f 279 278 271
f 282 293 287
f 282 287 283
f 282 283 289
f 282 289 292
f 282 292 293
f 283 287 291
f 287 293 286
f 293 292 284
f 292 289 288
f 289 283 290
f 285 291 286
f 285 286 284
f 285 284 288
f 285 288 290
f 285 290 291
f 286 291 287
f 284 286 293
f 288 284 292
f 290 288 289
f 291 290 283
f 294 305 299
f 294 299 295
f 294 295 301
f 294 301 304
f 294 304 305
f 295 299 303
f 299 305 298
f 305 304 296
f 304 301 300
f 301 295 302
f 297 303 298
f 297 298 296
f 297 296 300
f 297 300 302
f 297 302 303
f 298 303 299
f 296 298 305
f 300 296 304
f 302 300 301
f 303 302 295
f 306 317 311
f 306 311 307
f 306 307 313
f 306 313 316
f 306 316 317
f 307 311 315
f 311 317 310
f 317 316 308
f 316 313 312
f 313 307 314
f 309 315 310
f 309 310 308
f 309 308 312
f 309 312 314
f 309 314 315
f 310 315 311
f 308 310 317
f 312 308 316
f 314 312 313
f 315 314 307
f 318 329 323
f 318 323 319
f 318 319 325
f 318 325 328
f 318 328 329
f 319 323 327
f 323 329 322
f 329 328 320
f 328 325 324
f 325 319 326
f 321 327 322
f 321 322 320
f 321 320 324
f 321 324 326
f 321 326 327
f 322 327 323
f 320 322 329
f 324 320 328
f 326 324 325
f 327 326 319
f 330 341 335
f 330 335 331
f 330 331 337
f 330 337 340
f 330 340 341
f 331 335 339
f 335 341 334
f 341 340 332
f 340 337 336
f 337 331 338
f 333 339 334
f 333 334 332
f 333 332 336
f 333 336 338
f 333 338 339
f 334 339 335
f 332 334 341
f 336 332 340
f 338 336 337
f 339 338 331
f 342 353 347
f 342 347 343
f 342 343 349
f 342 349 352
f 342 352 353
f 343 347 351
f 347 353 346
f 353 352 344
f 352 349 348
f 349 343 350
f 345 351 346
f 345 346 344
f 345 344 348
f 345 348 350
f 345 350 351
f 346 351 347
f 344 346 353
f 348 344 352
f 350 348 349
f 351 350 343
f 354 365 359
f 354 359 355
f 354 355 361
f 354 361 364
f 354 364 365
f 355 359 363
f 359 365 358
f 365 364 356
f 364 361 360
f 361 355 362
f 357 363 358
f 357 358 356
f 357 356 360
f 357 360 362
f 357 362 363
f 358 363 359
f 356 358 365
f 360 356 364
f 362 360 361
f 363 362 355
f 366 377 371
f 366 371 367
f 366 367 373
f 366 373 376
f 366 376 377
f 367 371 375
f 371 377 370
f 377 376 368
f 376 373 372
f 373 367 374
f 369 375 370
f 369 370 368
f 369 368 372
f 369 372 374
f 369 374 375
f 370 375 371
f 368 370 377
f 372 368 376
f 374 372 373
f 375 374 367
f 378 389 383
f 378 383 379
f 378 379 385
f 378 385 388
f 378 388 389
f 379 383 387
f 383 389 382
f 389 388 380
f 388 385 384
f 385 379 386
f 381 387 382
f 381 382 380
f 381 380 384
f 381 384 386
f 381 386 387
f 382 387 383
f 380 382 389
f 384 380 388
f 386 384 385
f 387 386 379
f 390 401 395
f 390 395 391
f 390 391 397
f 390 397 400
f 390 400 401
f 391 395 399
f 395 401 394
f 401 400 392
f 400 397 396
f 397 391 398
f 393 399 394
f 393 394 392
f 393 392 396
f 393 396 398
f 393 398 399
f 394 399 395
f 392 394 401
f 396 392 400
f 398 396 397
f 399 398 391
f 402 413 407
f 402 407 403
f 402 403 409
f 402 409 412
f 402 412 413
f 403 407 411
f 407 413 406
f 413 412 404
f 412 409 408
f 409 403 410
f 405 411 406
f 405 406 404
f 405 404 408
f 405 408 410
f 405 410 411
f 406 411 407
f 404 406 413
f 408 404 412
f 410 408 409
f 411 410 403
f 414 425 419
f 414 419 415
f 414 415 421
f 414 421 424
f 414 424 425
f 415 419 423
f 419 425 418
f 425 424 416
f 424 421 420
f 421 415 422
f 417 423 418
f 417 418 416
f 417 416 420
f 417 420 422
f 417 422 423
f 418 423 419
f 416 418 425
f 420 416 424
f 422 420 421
f 423 422 415
