mtllib wyrm_volcanic.mtl
g wyrm_volcanic
usemtl M_wyrm_volcanic
v -0.393750 -0.093750 1.606250
v -0.056250 -0.093750 1.606250
v -0.056250 0.243750 1.606250
v -0.393750 0.243750 1.606250
v -0.393750 -0.093750 1.943750
v -0.056250 -0.093750 1.943750
v -0.056250 0.243750 1.943750
v -0.393750 0.243750 1.943750
v -0.393750 -0.093750 2.056250
v -0.056250 -0.093750 2.056250
v -0.056250 0.243750 2.056250
v -0.393750 0.243750 2.056250
v -0.393750 -0.093750 2.393750
v -0.056250 -0.093750 2.393750
v -0.056250 0.243750 2.393750
v -0.393750 0.243750 2.393750
v -0.393750 0.356250 1.606250
v -0.056250 0.356250 1.606250
v -0.056250 0.693750 1.606250
v -0.393750 0.693750 1.606250
v -0.393750 0.356250 1.943750
v -0.056250 0.356250 1.943750
v -0.056250 0.693750 1.943750
v -0.393750 0.693750 1.943750
v -0.393750 0.356250 2.056250
v -0.056250 0.356250 2.056250
v -0.056250 0.693750 2.056250
v -0.393750 0.693750 2.056250
v -0.393750 0.356250 2.393750
v -0.056250 0.356250 2.393750
v -0.056250 0.693750 2.393750
v -0.393750 0.693750 2.393750
v 0.056250 -0.093750 1.606250
v 0.393750 -0.093750 1.606250
v 0.393750 0.243750 1.606250
v 0.056250 0.243750 1.606250
v 0.056250 -0.093750 1.943750
v 0.393750 -0.093750 1.943750
v 0.393750 0.243750 1.943750
v 0.056250 0.243750 1.943750
v 0.056250 -0.093750 2.056250
v 0.393750 -0.093750 2.056250
v 0.393750 0.243750 2.056250
v 0.056250 0.243750 2.056250
v 0.056250 -0.093750 2.393750
v 0.393750 -0.093750 2.393750
v 0.393750 0.243750 2.393750
v 0.056250 0.243750 2.393750
v 0.056250 0.356250 1.606250
v 0.393750 0.356250 1.606250
v 0.393750 0.693750 1.606250
v 0.056250 0.693750 1.606250
v 0.056250 0.356250 1.943750
v 0.393750 0.356250 1.943750
v 0.393750 0.693750 1.943750
v 0.056250 0.693750 1.943750
v 0.056250 0.356250 2.056250
v 0.393750 0.356250 2.056250
v 0.393750 0.693750 2.056250
v 0.056250 0.693750 2.056250
v 0.056250 0.356250 2.393750
v 0.393750 0.356250 2.393750
v 0.393750 0.693750 2.393750
v 0.056250 0.693750 2.393750
v -0.350000 -0.200000 0.950000
v 0.350000 -0.200000 0.950000
v 0.350000 0.500000 0.950000
v -0.350000 0.500000 0.950000
v -0.350000 -0.200000 1.650000
v 0.350000 -0.200000 1.650000
v 0.350000 0.500000 1.650000
v -0.350000 0.500000 1.650000
v 0.056531 -0.198363 0.470000
v 0.716531 -0.198363 0.470000
v 0.716531 0.461637 0.470000
v 0.056531 0.461637 0.470000
v 0.056531 -0.198363 1.130000
v 0.716531 -0.198363 1.130000
v 0.716531 0.461637 1.130000
v 0.056531 0.461637 1.130000
v 0.281270 -0.228955 -0.010000
v 0.901270 -0.228955 -0.010000
v 0.901270 0.391045 -0.010000
v 0.281270 0.391045 -0.010000
v 0.281270 -0.228955 0.610000
v 0.901270 -0.228955 0.610000
v 0.901270 0.391045 0.610000
v 0.281270 0.391045 0.610000
v 0.227926 -0.279389 -0.490000
v 0.807926 -0.279389 -0.490000
v 0.807926 0.300611 -0.490000
v 0.227926 0.300611 -0.490000
v 0.227926 -0.279389 0.090000
v 0.807926 -0.279389 0.090000
v 0.807926 0.300611 0.090000
v 0.227926 0.300611 0.090000
v -0.069007 -0.332422 -0.970000
v 0.470993 -0.332422 -0.970000
v 0.470993 0.207578 -0.970000
v -0.069007 0.207578 -0.970000
v -0.069007 -0.332422 -0.430000
v 0.470993 -0.332422 -0.430000
v 0.470993 0.207578 -0.430000
v -0.069007 0.207578 -0.430000
v -0.460470 -0.370172 -1.450000
v 0.039530 -0.370172 -1.450000
v 0.039530 0.129828 -1.450000
v -0.460470 0.129828 -1.450000
v -0.460470 -0.370172 -0.950000
v 0.039530 -0.370172 -0.950000
v 0.039530 0.129828 -0.950000
v -0.460470 0.129828 -0.950000
v -0.752945 -0.378499 -1.930000
v -0.292945 -0.378499 -1.930000
v -0.292945 0.081501 -1.930000
v -0.752945 0.081501 -1.930000
v -0.752945 -0.378499 -1.470000
v -0.292945 -0.378499 -1.470000
v -0.292945 0.081501 -1.470000
v -0.752945 0.081501 -1.470000
v -0.799472 -0.350469 -2.410000
v -0.379472 -0.350469 -2.410000
v -0.379472 0.069531 -2.410000
v -0.799472 0.069531 -2.410000
v -0.799472 -0.350469 -1.990000
v -0.379472 -0.350469 -1.990000
v -0.379472 0.069531 -1.990000
v -0.799472 0.069531 -1.990000
v -0.568760 -0.288047 -2.890000
v -0.188760 -0.288047 -2.890000
v -0.188760 0.091953 -2.890000
v -0.568760 0.091953 -2.890000
v -0.568760 -0.288047 -2.510000
v -0.188760 -0.288047 -2.510000
v -0.188760 0.091953 -2.510000
v -0.568760 0.091953 -2.510000
v -0.159912 -0.201619 -3.370000
v 0.180088 -0.201619 -3.370000
v 0.180088 0.138381 -3.370000
v -0.159912 0.138381 -3.370000
v -0.159912 -0.201619 -3.030000
v 0.180088 -0.201619 -3.030000
v 0.180088 0.138381 -3.030000
v -0.159912 0.138381 -3.030000
v 0.194192 -0.157451 -4.000000
v 0.594192 -0.157451 -4.000000
v 0.594192 0.242549 -4.000000
v 0.194192 0.242549 -4.000000
v 0.194192 -0.157451 -3.600000
v 0.594192 -0.157451 -3.600000
v 0.594192 0.242549 -3.600000
v 0.194192 0.242549 -3.600000
v 0.467901 -0.018700 -4.425000
v 0.717901 -0.018700 -4.425000
v 0.717901 0.231300 -4.425000
v 0.467901 0.231300 -4.425000
v 0.467901 -0.018700 -4.175000
v 0.717901 -0.018700 -4.175000
v 0.717901 0.231300 -4.175000
v 0.467901 0.231300 -4.175000
f 1 2 3 4
f 5 8 7 6
f 4 3 7 8
f 1 5 6 2
f 4 8 5 1
f 2 6 7 3
f 9 10 11 12
f 13 16 15 14
f 12 11 15 16
f 9 13 14 10
f 12 16 13 9
f 10 14 15 11
f 17 18 19 20
f 21 24 23 22
f 20 19 23 24
f 17 21 22 18
f 20 24 21 17
f 18 22 23 19
f 25 26 27 28
f 29 32 31 30
f 28 27 31 32
f 25 29 30 26
f 28 32 29 25
f 26 30 31 27
f 33 34 35 36
f 37 40 39 38
f 36 35 39 40
f 33 37 38 34
f 36 40 37 33
f 34 38 39 35
f 41 42 43 44
f 45 48 47 46
f 44 43 47 48
f 41 45 46 42
f 44 48 45 41
f 42 46 47 43
f 49 50 51 52
f 53 56 55 54
f 52 51 55 56
f 49 53 54 50
f 52 56 53 49
f 50 54 55 51
f 57 58 59 60
f 61 64 63 62
f 60 59 63 64
f 57 61 62 58
f 60 64 61 57
f 58 62 63 59
f 65 66 67 68
f 69 72 71 70
f 68 67 71 72
f 65 69 70 66
f 68 72 69 65
f 66 70 71 67
f 73 74 75 76
f 77 80 79 78
f 76 75 79 80
f 73 77 78 74
f 76 80 77 73
f 74 78 79 75
f 81 82 83 84
f 85 88 87 86
f 84 83 87 88
f 81 85 86 82
f 84 88 85 81
f 82 86 87 83
f 89 90 91 92
f 93 96 95 94
f 92 91 95 96
f 89 93 94 90
f 92 96 93 89
f 90 94 95 91
f 97 98 99 100
f 101 104 103 102
f 100 99 103 104
f 97 101 102 98
f 100 104 101 97
f 98 102 103 99
f 105 106 107 108
f 109 112 111 110
f 108 107 111 112
f 105 109 110 106
f 108 112 109 105
f 106 110 111 107
f 113 114 115 116
f 117 120 119 118
f 116 115 119 120
f 113 117 118 114
f 116 120 117 113
f 114 118 119 115
f 121 122 123 124
f 125 128 127 126
f 124 123 127 128
f 121 125 126 122
f 124 128 125 121
f 122 126 127 123
f 129 130 131 132
f 133 136 135 134
f 132 131 135 136
f 129 133 134 130
f 132 136 133 129
f 130 134 135 131
f 137 138 139 140
f 141 144 143 142
f 140 139 143 144
f 137 141 142 138
f 140 144 141 137
f 138 142 143 139
f 145 146 147 148
f 149 152 151 150
f 148 147 151 152
f 145 149 150 146
f 148 152 149 145
f 146 150 151 147
f 153 154 155 156
f 157 160 159 158
f 156 155 159 160
f 153 157 158 154
f 156 160 157 153
f 154 158 159 155
