mtllib griffin_alpine.mtl
g griffin_alpine
usemtl mat_griffin_alpine
v -0.2500 1.5500 -0.2500
v 0.2500 1.5500 -0.2500
v 0.2500 2.0500 -0.2500
v -0.2500 2.0500 -0.2500
v -0.2500 1.5500 0.2500
v 0.2500 1.5500 0.2500
v 0.2500 2.0500 0.2500
v -0.2500 2.0500 0.2500
v -0.3500 0.4500 -0.3500
v 0.3500 0.4500 -0.3500
v 0.3500 1.1500 -0.3500
v -0.3500 1.1500 -0.3500
v -0.3500 0.4500 0.3500
v 0.3500 0.4500 0.3500
v 0.3500 1.1500 0.3500
v -0.3500 1.1500 0.3500
v -0.7250 1.0750 -0.1250
v -0.4750 1.0750 -0.1250
v -0.4750 1.3250 -0.1250
v -0.7250 1.3250 -0.1250
v -0.7250 1.0750 0.1250
v -0.4750 1.0750 0.1250
v -0.4750 1.3250 0.1250
v -0.7250 1.3250 0.1250
v 0.4750 1.0750 -0.1250
v 0.7250 1.0750 -0.1250
v 0.7250 1.3250 -0.1250
v 0.4750 1.3250 -0.1250
v 0.4750 1.0750 0.1250
v 0.7250 1.0750 0.1250
v 0.7250 1.3250 0.1250
v 0.4750 1.3250 0.1250
v -1.0000 0.7000 -0.1000
v -0.8000 0.7000 -0.1000
v -0.8000 0.9000 -0.1000
v -1.0000 0.9000 -0.1000
v -1.0000 0.7000 0.1000
v -0.8000 0.7000 0.1000
v -0.8000 0.9000 0.1000
v -1.0000 0.9000 0.1000
v 0.8000 0.7000 -0.1000
v 1.0000 0.7000 -0.1000
v 1.0000 0.9000 -0.1000
v 0.8000 0.9000 -0.1000
v 0.8000 0.7000 0.1000
v 1.0000 0.7000 0.1000
v 1.0000 0.9000 0.1000
v 0.8000 0.9000 0.1000
v -0.4500 -0.5500 -0.1500
v -0.1500 -0.5500 -0.1500
v -0.1500 -0.2500 -0.1500
v -0.4500 -0.2500 -0.1500
v -0.4500 -0.5500 0.1500
v -0.1500 -0.5500 0.1500
v -0.1500 -0.2500 0.1500
v -0.4500 -0.2500 0.1500
v 0.1500 -0.5500 -0.1500
v 0.4500 -0.5500 -0.1500
v 0.4500 -0.2500 -0.1500
v 0.1500 -0.2500 -0.1500
v 0.1500 -0.5500 0.1500
v 0.4500 -0.5500 0.1500
v 0.4500 -0.2500 0.1500
v 0.1500 -0.2500 0.1500
v -0.4250 -1.0250 0.0750
v -0.1750 -1.0250 0.0750
v -0.1750 -0.7750 0.0750
v -0.4250 -0.7750 0.0750
v -0.4250 -1.0250 0.3250
v -0.1750 -1.0250 0.3250
v -0.1750 -0.7750 0.3250
v -0.4250 -0.7750 0.3250
v 0.1750 -1.0250 0.0750
v 0.4250 -1.0250 0.0750
v 0.4250 -0.7750 0.0750
v 0.1750 -0.7750 0.0750
v 0.1750 -1.0250 0.3250
v 0.4250 -1.0250 0.3250
v 0.4250 -0.7750 0.3250
v 0.1750 -0.7750 0.3250
f 1 2 3 4
f 5 8 7 6
f 4 3 7 8
f 1 5 6 2
f 3 2 6 7
f 1 4 8 5
f 9 10 11 12
f 13 16 15 14
f 12 11 15 16
f 9 13 14 10
f 11 10 14 15
f 9 12 16 13
f 17 18 19 20
f 21 24 23 22
f 20 19 23 24
f 17 21 22 18
f 19 18 22 23
f 17 20 24 21
f 25 26 27 28
f 29 32 31 30
f 28 27 31 32
f 25 29 30 26
f 27 26 30 31
f 25 28 32 29
f 33 34 35 36
f 37 40 39 38
f 36 35 39 40
f 33 37 38 34
f 35 34 38 39
f 33 36 40 37
f 41 42 43 44
f 45 48 47 46
f 44 43 47 48
f 41 45 46 42
f 43 42 46 47
f 41 44 48 45
f 49 50 51 52
f 53 56 55 54
f 52 51 55 56
f 49 53 54 50
f 51 50 54 55
f 49 52 56 53
f 57 58 59 60
f 61 64 63 62
f 60 59 63 64
f 57 61 62 58
f 59 58 62 63
f 57 60 64 61
f 65 66 67 68
f 69 72 71 70
f 68 67 71 72
f 65 69 70 66
f 67 66 70 71
f 65 68 72 69
f 73 74 75 76
f 77 80 79 78
f 76 75 79 80
f 73 77 78 74
f 75 74 78 79
f 73 76 80 77
