# WFC Creature - cave_wyrm.obj
mtllib cave_wyrm.mtl
usemtl creature_mat

v 0.0000 -0.5200 5.3000
v 0.0000 -0.5200 5.3000
v -0.0000 -0.5200 5.3000
v -0.0000 -0.5200 5.3000
v -0.0000 -0.5200 5.3000
v 0.0000 -0.5200 5.3000
v 0.2600 -0.4503 5.3000
v 0.1300 -0.4503 5.5252
v -0.1300 -0.4503 5.5252
v -0.2600 -0.4503 5.3000
v -0.1300 -0.4503 5.0748
v 0.1300 -0.4503 5.0748
v 0.4503 -0.2600 5.3000
v 0.2252 -0.2600 5.6900
v -0.2252 -0.2600 5.6900
v -0.4503 -0.2600 5.3000
v -0.2252 -0.2600 4.9100
v 0.2252 -0.2600 4.9100
v 0.5200 0.0000 5.3000
v 0.2600 0.0000 5.7503
v -0.2600 0.0000 5.7503
v -0.5200 0.0000 5.3000
v -0.2600 0.0000 4.8497
v 0.2600 0.0000 4.8497
v 0.4503 0.2600 5.3000
v 0.2252 0.2600 5.6900
v -0.2252 0.2600 5.6900
v -0.4503 0.2600 5.3000
v -0.2252 0.2600 4.9100
v 0.2252 0.2600 4.9100
v 0.2600 0.4503 5.3000
v 0.1300 0.4503 5.5252
v -0.1300 0.4503 5.5252
v -0.2600 0.4503 5.3000
v -0.1300 0.4503 5.0748
v 0.1300 0.4503 5.0748
v 0.0000 0.5200 5.3000
v 0.0000 0.5200 5.3000
v -0.0000 0.5200 5.3000
v -0.0000 0.5200 5.3000
v -0.0000 0.5200 5.3000
v 0.0000 0.5200 5.3000
f 1 3 4
f 1 4 2
f 3 5 6
f 3 6 4
f 5 7 8
f 5 8 6
f 7 9 10
f 7 10 8
f 9 11 12
f 9 12 10
f 11 13 14
f 11 14 12
f 13 15 16
f 13 16 14
f 15 1 2
f 15 2 16
f 1 3 4
f 1 4 2
f 3 5 6
f 3 6 4
f 5 7 8
f 5 8 6
f 7 9 10
f 7 10 8
f 9 11 12
f 9 12 10
f 11 13 14
f 11 14 12
f 13 15 16
f 13 16 14
f 15 1 2
f 15 2 16
f 1 3 4
f 1 4 2
f 3 5 6
f 3 6 4
f 5 7 8
f 5 8 6
f 7 9 10
f 7 10 8
f 9 11 12
f 9 12 10
f 11 13 14
f 11 14 12
f 13 15 16
f 13 16 14
f 15 1 2
f 15 2 16
f 1 3 4
f 1 4 2
f 3 5 6
f 3 6 4
f 5 7 8
f 5 8 6
f 7 9 10
f 7 10 8
f 9 11 12
f 9 12 10
f 11 13 14
f 11 14 12
f 13 15 16
f 13 16 14
f 15 1 2
f 15 2 16
f 1 3 4
f 1 4 2
f 3 5 6
f 3 6 4
f 5 7 8
f 5 8 6
f 7 9 10
f 7 10 8
f 9 11 12
f 9 12 10
f 11 13 14
f 11 14 12
f 13 15 16
f 13 16 14
f 15 1 2
f 15 2 16
f 1 3 4
f 1 4 2
f 3 5 6
f 3 6 4
f 5 7 8
f 5 8 6
f 7 9 10
f 7 10 8
f 9 11 12
f 9 12 10
f 11 13 14
f 11 14 12
f 13 15 16
f 13 16 14
f 15 1 2
f 15 2 16
f 1 3 4
f 1 4 2
f 3 5 6
f 3 6 4
f 5 7 8
f 5 8 6
f 7 9 10
f 7 10 8
f 9 11 12
f 9 12 10
f 11 13 14
f 11 14 12
f 13 15 16
f 13 16 14
f 15 1 2
f 15 2 16
f 1 3 4
f 1 4 2
f 3 5 6
f 3 6 4
f 5 7 8
f 5 8 6
f 7 9 10
f 7 10 8
f 9 11 12
f 9 12 10
f 11 13 14
f 11 14 12
f 13 15 16
f 13 16 14
f 15 1 2
f 15 2 16
f 1 3 4
f 1 4 2
f 3 5 6
f 3 6 4
f 5 7 8
f 5 8 6
f 7 9 10
f 7 10 8
f 9 11 12
f 9 12 10
f 11 13 14
f 11 14 12
f 13 15 16
f 13 16 14
f 15 1 2
f 15 2 16
f 1 3 4
f 1 4 2
f 3 5 6
f 3 6 4
f 5 7 8
f 5 8 6
f 7 9 10
f 7 10 8
f 9 11 12
f 9 12 10
f 11 13 14
f 11 14 12
f 13 15 16
f 13 16 14
f 15 1 2
f 15 2 16
f 1 3 4
f 1 4 2
f 3 5 6
f 3 6 4
f 5 7 8
f 5 8 6
f 7 9 10
f 7 10 8
f 9 11 12
f 9 12 10
f 11 13 14
f 11 14 12
f 13 15 16
f 13 16 14
f 15 1 2
f 15 2 16
f 1 3 4
f 1 4 2
f 3 5 6
f 3 6 4
f 5 7 8
f 5 8 6
f 7 9 10
f 7 10 8
f 9 11 12
f 9 12 10
f 11 13 14
f 11 14 12
f 13 15 16
f 13 16 14
f 15 1 2
f 15 2 16
f 1 7 8
f 1 8 2
f 2 8 9
f 2 9 3
f 3 9 10
f 3 10 4
f 4 10 11
f 4 11 5
f 5 11 12
f 5 12 6
f 6 12 7
f 6 7 1
f 7 13 14
f 7 14 8
f 8 14 15
f 8 15 9
f 9 15 16
f 9 16 10
f 10 16 17
f 10 17 11
f 11 17 18
f 11 18 12
f 12 18 13
f 12 13 7
f 13 19 20
f 13 20 14
f 14 20 21
f 14 21 15
f 15 21 22
f 15 22 16
f 16 22 23
f 16 23 17
f 17 23 24
f 17 24 18
f 18 24 19
f 18 19 13
f 19 25 26
f 19 26 20
f 20 26 27
f 20 27 21
f 21 27 28
f 21 28 22
f 22 28 29
f 22 29 23
f 23 29 30
f 23 30 24
f 24 30 25
f 24 25 19
f 25 31 32
f 25 32 26
f 26 32 33
f 26 33 27
f 27 33 34
f 27 34 28
f 28 34 35
f 28 35 29
f 29 35 36
f 29 36 30
f 30 36 31
f 30 31 25
f 43 45 46
f 43 46 44
f 45 47 48
f 45 48 46
f 47 49 50
f 47 50 48
f 49 51 52
f 49 52 50
f 51 53 54
f 51 54 52
f 53 55 56
f 53 56 54
f 55 57 58
f 55 58 56
f 57 43 44
f 57 44 58
f 43 45 46
f 43 46 44
f 45 47 48
f 45 48 46
f 47 49 50
f 47 50 48
f 49 51 52
f 49 52 50
f 51 53 54
f 51 54 52
f 53 55 56
f 53 56 54
f 55 57 58
f 55 58 56
f 57 43 44
f 57 44 58
f 43 45 46
f 43 46 44
f 45 47 48
f 45 48 46
f 47 49 50
f 47 50 48
f 49 51 52
f 49 52 50
f 51 53 54
f 51 54 52
f 53 55 56
f 53 56 54
f 55 57 58
f 55 58 56
f 57 43 44
f 57 44 58
